<?xml version="1.0" encoding="utf-8" standalone="no"?>
<!DOCTYPE svg PUBLIC "-//W3C//DTD SVG 1.1//EN"
  "http://www.w3.org/Graphics/SVG/1.1/DTD/svg11.dtd">
<svg xmlns:xlink="http://www.w3.org/1999/xlink" width="460.8pt" height="345.6pt" viewBox="0 0 460.8 345.6" xmlns="http://www.w3.org/2000/svg" version="1.1">
 <metadata>
  <rdf:RDF xmlns:dc="http://purl.org/dc/elements/1.1/" xmlns:cc="http://creativecommons.org/ns#" xmlns:rdf="http://www.w3.org/1999/02/22-rdf-syntax-ns#">
   <cc:Work>
    <dc:type rdf:resource="http://purl.org/dc/dcmitype/StillImage"/>
    <dc:date>2025-01-07T08:39:04.978144</dc:date>
    <dc:format>image/svg+xml</dc:format>
    <dc:creator>
     <cc:Agent>
      <dc:title>Matplotlib v3.5.1, https://matplotlib.org/</dc:title>
     </cc:Agent>
    </dc:creator>
   </cc:Work>
  </rdf:RDF>
 </metadata>
 <defs>
  <style type="text/css">*{stroke-linejoin: round; stroke-linecap: butt}</style>
 </defs>
 <g id="figure_1">
  <g id="patch_1">
   <path d="M 0 345.6 
L 460.8 345.6 
L 460.8 0 
L 0 0 
z
" style="fill: #ffffff"/>
  </g>
  <g id="axes_1">
   <g id="patch_2">
    <path d="M 57.6 307.584 
L 414.72 307.584 
L 414.72 41.472 
L 57.6 41.472 
z
" style="fill: #ffffff"/>
   </g>
   <g id="matplotlib.axis_1">
    <g id="xtick_1">
     <g id="line2d_1">
      <defs>
       <path id="m08f12e1777" d="M 0 0 
L 0 3.5 
" style="stroke: #000000; stroke-width: 0.8"/>
      </defs>
      <g>
       <use xlink:href="#m08f12e1777" x="72.943263" y="307.584" style="stroke: #000000; stroke-width: 0.8"/>
      </g>
     </g>
     <g id="text_1">
      <!-- 0 -->
      <g transform="translate(69.762013 322.182437)scale(0.1 -0.1)">
       <defs>
        <path id="DejaVuSans-30" d="M 2034 4250 
Q 1547 4250 1301 3770 
Q 1056 3291 1056 2328 
Q 1056 1369 1301 889 
Q 1547 409 2034 409 
Q 2525 409 2770 889 
Q 3016 1369 3016 2328 
Q 3016 3291 2770 3770 
Q 2525 4250 2034 4250 
z
M 2034 4750 
Q 2819 4750 3233 4129 
Q 3647 3509 3647 2328 
Q 3647 1150 3233 529 
Q 2819 -91 2034 -91 
Q 1250 -91 836 529 
Q 422 1150 422 2328 
Q 422 3509 836 4129 
Q 1250 4750 2034 4750 
z
" transform="scale(0.015625)"/>
       </defs>
       <use xlink:href="#DejaVuSans-30"/>
      </g>
     </g>
    </g>
    <g id="xtick_2">
     <g id="line2d_2">
      <g>
       <use xlink:href="#m08f12e1777" x="117.416488" y="307.584" style="stroke: #000000; stroke-width: 0.8"/>
      </g>
     </g>
     <g id="text_2">
      <!-- 50 -->
      <g transform="translate(111.053988 322.182437)scale(0.1 -0.1)">
       <defs>
        <path id="DejaVuSans-35" d="M 691 4666 
L 3169 4666 
L 3169 4134 
L 1269 4134 
L 1269 2991 
Q 1406 3038 1543 3061 
Q 1681 3084 1819 3084 
Q 2600 3084 3056 2656 
Q 3513 2228 3513 1497 
Q 3513 744 3044 326 
Q 2575 -91 1722 -91 
Q 1428 -91 1123 -41 
Q 819 9 494 109 
L 494 744 
Q 775 591 1075 516 
Q 1375 441 1709 441 
Q 2250 441 2565 725 
Q 2881 1009 2881 1497 
Q 2881 1984 2565 2268 
Q 2250 2553 1709 2553 
Q 1456 2553 1204 2497 
Q 953 2441 691 2322 
L 691 4666 
z
" transform="scale(0.015625)"/>
       </defs>
       <use xlink:href="#DejaVuSans-35"/>
       <use xlink:href="#DejaVuSans-30" x="63.623047"/>
      </g>
     </g>
    </g>
    <g id="xtick_3">
     <g id="line2d_3">
      <g>
       <use xlink:href="#m08f12e1777" x="161.889714" y="307.584" style="stroke: #000000; stroke-width: 0.8"/>
      </g>
     </g>
     <g id="text_3">
      <!-- 100 -->
      <g transform="translate(152.345964 322.182437)scale(0.1 -0.1)">
       <defs>
        <path id="DejaVuSans-31" d="M 794 531 
L 1825 531 
L 1825 4091 
L 703 3866 
L 703 4441 
L 1819 4666 
L 2450 4666 
L 2450 531 
L 3481 531 
L 3481 0 
L 794 0 
L 794 531 
z
" transform="scale(0.015625)"/>
       </defs>
       <use xlink:href="#DejaVuSans-31"/>
       <use xlink:href="#DejaVuSans-30" x="63.623047"/>
       <use xlink:href="#DejaVuSans-30" x="127.246094"/>
      </g>
     </g>
    </g>
    <g id="xtick_4">
     <g id="line2d_4">
      <g>
       <use xlink:href="#m08f12e1777" x="206.362939" y="307.584" style="stroke: #000000; stroke-width: 0.8"/>
      </g>
     </g>
     <g id="text_4">
      <!-- 150 -->
      <g transform="translate(196.819189 322.182437)scale(0.1 -0.1)">
       <use xlink:href="#DejaVuSans-31"/>
       <use xlink:href="#DejaVuSans-35" x="63.623047"/>
       <use xlink:href="#DejaVuSans-30" x="127.246094"/>
      </g>
     </g>
    </g>
    <g id="xtick_5">
     <g id="line2d_5">
      <g>
       <use xlink:href="#m08f12e1777" x="250.836164" y="307.584" style="stroke: #000000; stroke-width: 0.8"/>
      </g>
     </g>
     <g id="text_5">
      <!-- 200 -->
      <g transform="translate(241.292414 322.182437)scale(0.1 -0.1)">
       <defs>
        <path id="DejaVuSans-32" d="M 1228 531 
L 3431 531 
L 3431 0 
L 469 0 
L 469 531 
Q 828 903 1448 1529 
Q 2069 2156 2228 2338 
Q 2531 2678 2651 2914 
Q 2772 3150 2772 3378 
Q 2772 3750 2511 3984 
Q 2250 4219 1831 4219 
Q 1534 4219 1204 4116 
Q 875 4013 500 3803 
L 500 4441 
Q 881 4594 1212 4672 
Q 1544 4750 1819 4750 
Q 2544 4750 2975 4387 
Q 3406 4025 3406 3419 
Q 3406 3131 3298 2873 
Q 3191 2616 2906 2266 
Q 2828 2175 2409 1742 
Q 1991 1309 1228 531 
z
" transform="scale(0.015625)"/>
       </defs>
       <use xlink:href="#DejaVuSans-32"/>
       <use xlink:href="#DejaVuSans-30" x="63.623047"/>
       <use xlink:href="#DejaVuSans-30" x="127.246094"/>
      </g>
     </g>
    </g>
    <g id="xtick_6">
     <g id="line2d_6">
      <g>
       <use xlink:href="#m08f12e1777" x="295.30939" y="307.584" style="stroke: #000000; stroke-width: 0.8"/>
      </g>
     </g>
     <g id="text_6">
      <!-- 250 -->
      <g transform="translate(285.76564 322.182437)scale(0.1 -0.1)">
       <use xlink:href="#DejaVuSans-32"/>
       <use xlink:href="#DejaVuSans-35" x="63.623047"/>
       <use xlink:href="#DejaVuSans-30" x="127.246094"/>
      </g>
     </g>
    </g>
    <g id="xtick_7">
     <g id="line2d_7">
      <g>
       <use xlink:href="#m08f12e1777" x="339.782615" y="307.584" style="stroke: #000000; stroke-width: 0.8"/>
      </g>
     </g>
     <g id="text_7">
      <!-- 300 -->
      <g transform="translate(330.238865 322.182437)scale(0.1 -0.1)">
       <defs>
        <path id="DejaVuSans-33" d="M 2597 2516 
Q 3050 2419 3304 2112 
Q 3559 1806 3559 1356 
Q 3559 666 3084 287 
Q 2609 -91 1734 -91 
Q 1441 -91 1130 -33 
Q 819 25 488 141 
L 488 750 
Q 750 597 1062 519 
Q 1375 441 1716 441 
Q 2309 441 2620 675 
Q 2931 909 2931 1356 
Q 2931 1769 2642 2001 
Q 2353 2234 1838 2234 
L 1294 2234 
L 1294 2753 
L 1863 2753 
Q 2328 2753 2575 2939 
Q 2822 3125 2822 3475 
Q 2822 3834 2567 4026 
Q 2313 4219 1838 4219 
Q 1578 4219 1281 4162 
Q 984 4106 628 3988 
L 628 4550 
Q 988 4650 1302 4700 
Q 1616 4750 1894 4750 
Q 2613 4750 3031 4423 
Q 3450 4097 3450 3541 
Q 3450 3153 3228 2886 
Q 3006 2619 2597 2516 
z
" transform="scale(0.015625)"/>
       </defs>
       <use xlink:href="#DejaVuSans-33"/>
       <use xlink:href="#DejaVuSans-30" x="63.623047"/>
       <use xlink:href="#DejaVuSans-30" x="127.246094"/>
      </g>
     </g>
    </g>
    <g id="xtick_8">
     <g id="line2d_8">
      <g>
       <use xlink:href="#m08f12e1777" x="384.255841" y="307.584" style="stroke: #000000; stroke-width: 0.8"/>
      </g>
     </g>
     <g id="text_8">
      <!-- 350 -->
      <g transform="translate(374.712091 322.182437)scale(0.1 -0.1)">
       <use xlink:href="#DejaVuSans-33"/>
       <use xlink:href="#DejaVuSans-35" x="63.623047"/>
       <use xlink:href="#DejaVuSans-30" x="127.246094"/>
      </g>
     </g>
    </g>
    <g id="text_9">
     <!-- Day of year -->
     <g transform="translate(207.133437 335.860562)scale(0.1 -0.1)">
      <defs>
       <path id="DejaVuSans-44" d="M 1259 4147 
L 1259 519 
L 2022 519 
Q 2988 519 3436 956 
Q 3884 1394 3884 2338 
Q 3884 3275 3436 3711 
Q 2988 4147 2022 4147 
L 1259 4147 
z
M 628 4666 
L 1925 4666 
Q 3281 4666 3915 4102 
Q 4550 3538 4550 2338 
Q 4550 1131 3912 565 
Q 3275 0 1925 0 
L 628 0 
L 628 4666 
z
" transform="scale(0.015625)"/>
       <path id="DejaVuSans-61" d="M 2194 1759 
Q 1497 1759 1228 1600 
Q 959 1441 959 1056 
Q 959 750 1161 570 
Q 1363 391 1709 391 
Q 2188 391 2477 730 
Q 2766 1069 2766 1631 
L 2766 1759 
L 2194 1759 
z
M 3341 1997 
L 3341 0 
L 2766 0 
L 2766 531 
Q 2569 213 2275 61 
Q 1981 -91 1556 -91 
Q 1019 -91 701 211 
Q 384 513 384 1019 
Q 384 1609 779 1909 
Q 1175 2209 1959 2209 
L 2766 2209 
L 2766 2266 
Q 2766 2663 2505 2880 
Q 2244 3097 1772 3097 
Q 1472 3097 1187 3025 
Q 903 2953 641 2809 
L 641 3341 
Q 956 3463 1253 3523 
Q 1550 3584 1831 3584 
Q 2591 3584 2966 3190 
Q 3341 2797 3341 1997 
z
" transform="scale(0.015625)"/>
       <path id="DejaVuSans-79" d="M 2059 -325 
Q 1816 -950 1584 -1140 
Q 1353 -1331 966 -1331 
L 506 -1331 
L 506 -850 
L 844 -850 
Q 1081 -850 1212 -737 
Q 1344 -625 1503 -206 
L 1606 56 
L 191 3500 
L 800 3500 
L 1894 763 
L 2988 3500 
L 3597 3500 
L 2059 -325 
z
" transform="scale(0.015625)"/>
       <path id="DejaVuSans-20" transform="scale(0.015625)"/>
       <path id="DejaVuSans-6f" d="M 1959 3097 
Q 1497 3097 1228 2736 
Q 959 2375 959 1747 
Q 959 1119 1226 758 
Q 1494 397 1959 397 
Q 2419 397 2687 759 
Q 2956 1122 2956 1747 
Q 2956 2369 2687 2733 
Q 2419 3097 1959 3097 
z
M 1959 3584 
Q 2709 3584 3137 3096 
Q 3566 2609 3566 1747 
Q 3566 888 3137 398 
Q 2709 -91 1959 -91 
Q 1206 -91 779 398 
Q 353 888 353 1747 
Q 353 2609 779 3096 
Q 1206 3584 1959 3584 
z
" transform="scale(0.015625)"/>
       <path id="DejaVuSans-66" d="M 2375 4863 
L 2375 4384 
L 1825 4384 
Q 1516 4384 1395 4259 
Q 1275 4134 1275 3809 
L 1275 3500 
L 2222 3500 
L 2222 3053 
L 1275 3053 
L 1275 0 
L 697 0 
L 697 3053 
L 147 3053 
L 147 3500 
L 697 3500 
L 697 3744 
Q 697 4328 969 4595 
Q 1241 4863 1831 4863 
L 2375 4863 
z
" transform="scale(0.015625)"/>
       <path id="DejaVuSans-65" d="M 3597 1894 
L 3597 1613 
L 953 1613 
Q 991 1019 1311 708 
Q 1631 397 2203 397 
Q 2534 397 2845 478 
Q 3156 559 3463 722 
L 3463 178 
Q 3153 47 2828 -22 
Q 2503 -91 2169 -91 
Q 1331 -91 842 396 
Q 353 884 353 1716 
Q 353 2575 817 3079 
Q 1281 3584 2069 3584 
Q 2775 3584 3186 3129 
Q 3597 2675 3597 1894 
z
M 3022 2063 
Q 3016 2534 2758 2815 
Q 2500 3097 2075 3097 
Q 1594 3097 1305 2825 
Q 1016 2553 972 2059 
L 3022 2063 
z
" transform="scale(0.015625)"/>
       <path id="DejaVuSans-72" d="M 2631 2963 
Q 2534 3019 2420 3045 
Q 2306 3072 2169 3072 
Q 1681 3072 1420 2755 
Q 1159 2438 1159 1844 
L 1159 0 
L 581 0 
L 581 3500 
L 1159 3500 
L 1159 2956 
Q 1341 3275 1631 3429 
Q 1922 3584 2338 3584 
Q 2397 3584 2469 3576 
Q 2541 3569 2628 3553 
L 2631 2963 
z
" transform="scale(0.015625)"/>
      </defs>
      <use xlink:href="#DejaVuSans-44"/>
      <use xlink:href="#DejaVuSans-61" x="77.001953"/>
      <use xlink:href="#DejaVuSans-79" x="138.28125"/>
      <use xlink:href="#DejaVuSans-20" x="197.460938"/>
      <use xlink:href="#DejaVuSans-6f" x="229.248047"/>
      <use xlink:href="#DejaVuSans-66" x="290.429688"/>
      <use xlink:href="#DejaVuSans-20" x="325.634766"/>
      <use xlink:href="#DejaVuSans-79" x="357.421875"/>
      <use xlink:href="#DejaVuSans-65" x="416.601562"/>
      <use xlink:href="#DejaVuSans-61" x="478.125"/>
      <use xlink:href="#DejaVuSans-72" x="539.404297"/>
     </g>
    </g>
   </g>
   <g id="matplotlib.axis_2">
    <g id="ytick_1">
     <g id="line2d_9">
      <defs>
       <path id="m8e6ef68994" d="M 0 0 
L -3.5 0 
" style="stroke: #000000; stroke-width: 0.8"/>
      </defs>
      <g>
       <use xlink:href="#m8e6ef68994" x="57.6" y="295.489953" style="stroke: #000000; stroke-width: 0.8"/>
      </g>
     </g>
     <g id="text_10">
      <!-- 0.00 -->
      <g transform="translate(28.334375 299.289171)scale(0.1 -0.1)">
       <defs>
        <path id="DejaVuSans-2e" d="M 684 794 
L 1344 794 
L 1344 0 
L 684 0 
L 684 794 
z
" transform="scale(0.015625)"/>
       </defs>
       <use xlink:href="#DejaVuSans-30"/>
       <use xlink:href="#DejaVuSans-2e" x="63.623047"/>
       <use xlink:href="#DejaVuSans-30" x="95.410156"/>
       <use xlink:href="#DejaVuSans-30" x="159.033203"/>
      </g>
     </g>
    </g>
    <g id="ytick_2">
     <g id="line2d_10">
      <g>
       <use xlink:href="#m8e6ef68994" x="57.6" y="265.133713" style="stroke: #000000; stroke-width: 0.8"/>
      </g>
     </g>
     <g id="text_11">
      <!-- 0.25 -->
      <g transform="translate(28.334375 268.932932)scale(0.1 -0.1)">
       <use xlink:href="#DejaVuSans-30"/>
       <use xlink:href="#DejaVuSans-2e" x="63.623047"/>
       <use xlink:href="#DejaVuSans-32" x="95.410156"/>
       <use xlink:href="#DejaVuSans-35" x="159.033203"/>
      </g>
     </g>
    </g>
    <g id="ytick_3">
     <g id="line2d_11">
      <g>
       <use xlink:href="#m8e6ef68994" x="57.6" y="234.777474" style="stroke: #000000; stroke-width: 0.8"/>
      </g>
     </g>
     <g id="text_12">
      <!-- 0.50 -->
      <g transform="translate(28.334375 238.576693)scale(0.1 -0.1)">
       <use xlink:href="#DejaVuSans-30"/>
       <use xlink:href="#DejaVuSans-2e" x="63.623047"/>
       <use xlink:href="#DejaVuSans-35" x="95.410156"/>
       <use xlink:href="#DejaVuSans-30" x="159.033203"/>
      </g>
     </g>
    </g>
    <g id="ytick_4">
     <g id="line2d_12">
      <g>
       <use xlink:href="#m8e6ef68994" x="57.6" y="204.421235" style="stroke: #000000; stroke-width: 0.8"/>
      </g>
     </g>
     <g id="text_13">
      <!-- 0.75 -->
      <g transform="translate(28.334375 208.220454)scale(0.1 -0.1)">
       <defs>
        <path id="DejaVuSans-37" d="M 525 4666 
L 3525 4666 
L 3525 4397 
L 1831 0 
L 1172 0 
L 2766 4134 
L 525 4134 
L 525 4666 
z
" transform="scale(0.015625)"/>
       </defs>
       <use xlink:href="#DejaVuSans-30"/>
       <use xlink:href="#DejaVuSans-2e" x="63.623047"/>
       <use xlink:href="#DejaVuSans-37" x="95.410156"/>
       <use xlink:href="#DejaVuSans-35" x="159.033203"/>
      </g>
     </g>
    </g>
    <g id="ytick_5">
     <g id="line2d_13">
      <g>
       <use xlink:href="#m8e6ef68994" x="57.6" y="174.064995" style="stroke: #000000; stroke-width: 0.8"/>
      </g>
     </g>
     <g id="text_14">
      <!-- 1.00 -->
      <g transform="translate(28.334375 177.864214)scale(0.1 -0.1)">
       <use xlink:href="#DejaVuSans-31"/>
       <use xlink:href="#DejaVuSans-2e" x="63.623047"/>
       <use xlink:href="#DejaVuSans-30" x="95.410156"/>
       <use xlink:href="#DejaVuSans-30" x="159.033203"/>
      </g>
     </g>
    </g>
    <g id="ytick_6">
     <g id="line2d_14">
      <g>
       <use xlink:href="#m8e6ef68994" x="57.6" y="143.708756" style="stroke: #000000; stroke-width: 0.8"/>
      </g>
     </g>
     <g id="text_15">
      <!-- 1.25 -->
      <g transform="translate(28.334375 147.507975)scale(0.1 -0.1)">
       <use xlink:href="#DejaVuSans-31"/>
       <use xlink:href="#DejaVuSans-2e" x="63.623047"/>
       <use xlink:href="#DejaVuSans-32" x="95.410156"/>
       <use xlink:href="#DejaVuSans-35" x="159.033203"/>
      </g>
     </g>
    </g>
    <g id="ytick_7">
     <g id="line2d_15">
      <g>
       <use xlink:href="#m8e6ef68994" x="57.6" y="113.352517" style="stroke: #000000; stroke-width: 0.8"/>
      </g>
     </g>
     <g id="text_16">
      <!-- 1.50 -->
      <g transform="translate(28.334375 117.151736)scale(0.1 -0.1)">
       <use xlink:href="#DejaVuSans-31"/>
       <use xlink:href="#DejaVuSans-2e" x="63.623047"/>
       <use xlink:href="#DejaVuSans-35" x="95.410156"/>
       <use xlink:href="#DejaVuSans-30" x="159.033203"/>
      </g>
     </g>
    </g>
    <g id="ytick_8">
     <g id="line2d_16">
      <g>
       <use xlink:href="#m8e6ef68994" x="57.6" y="82.996278" style="stroke: #000000; stroke-width: 0.8"/>
      </g>
     </g>
     <g id="text_17">
      <!-- 1.75 -->
      <g transform="translate(28.334375 86.795496)scale(0.1 -0.1)">
       <use xlink:href="#DejaVuSans-31"/>
       <use xlink:href="#DejaVuSans-2e" x="63.623047"/>
       <use xlink:href="#DejaVuSans-37" x="95.410156"/>
       <use xlink:href="#DejaVuSans-35" x="159.033203"/>
      </g>
     </g>
    </g>
    <g id="ytick_9">
     <g id="line2d_17">
      <g>
       <use xlink:href="#m8e6ef68994" x="57.6" y="52.640038" style="stroke: #000000; stroke-width: 0.8"/>
      </g>
     </g>
     <g id="text_18">
      <!-- 2.00 -->
      <g transform="translate(28.334375 56.439257)scale(0.1 -0.1)">
       <use xlink:href="#DejaVuSans-32"/>
       <use xlink:href="#DejaVuSans-2e" x="63.623047"/>
       <use xlink:href="#DejaVuSans-30" x="95.410156"/>
       <use xlink:href="#DejaVuSans-30" x="159.033203"/>
      </g>
     </g>
    </g>
    <g id="text_19">
     <!-- Revenue ($), 30 day rolling average -->
     <g transform="translate(22.254687 264.463937)rotate(-90)scale(0.1 -0.1)">
      <defs>
       <path id="DejaVuSans-52" d="M 2841 2188 
Q 3044 2119 3236 1894 
Q 3428 1669 3622 1275 
L 4263 0 
L 3584 0 
L 2988 1197 
Q 2756 1666 2539 1819 
Q 2322 1972 1947 1972 
L 1259 1972 
L 1259 0 
L 628 0 
L 628 4666 
L 2053 4666 
Q 2853 4666 3247 4331 
Q 3641 3997 3641 3322 
Q 3641 2881 3436 2590 
Q 3231 2300 2841 2188 
z
M 1259 4147 
L 1259 2491 
L 2053 2491 
Q 2509 2491 2742 2702 
Q 2975 2913 2975 3322 
Q 2975 3731 2742 3939 
Q 2509 4147 2053 4147 
L 1259 4147 
z
" transform="scale(0.015625)"/>
       <path id="DejaVuSans-76" d="M 191 3500 
L 800 3500 
L 1894 563 
L 2988 3500 
L 3597 3500 
L 2284 0 
L 1503 0 
L 191 3500 
z
" transform="scale(0.015625)"/>
       <path id="DejaVuSans-6e" d="M 3513 2113 
L 3513 0 
L 2938 0 
L 2938 2094 
Q 2938 2591 2744 2837 
Q 2550 3084 2163 3084 
Q 1697 3084 1428 2787 
Q 1159 2491 1159 1978 
L 1159 0 
L 581 0 
L 581 3500 
L 1159 3500 
L 1159 2956 
Q 1366 3272 1645 3428 
Q 1925 3584 2291 3584 
Q 2894 3584 3203 3211 
Q 3513 2838 3513 2113 
z
" transform="scale(0.015625)"/>
       <path id="DejaVuSans-75" d="M 544 1381 
L 544 3500 
L 1119 3500 
L 1119 1403 
Q 1119 906 1312 657 
Q 1506 409 1894 409 
Q 2359 409 2629 706 
Q 2900 1003 2900 1516 
L 2900 3500 
L 3475 3500 
L 3475 0 
L 2900 0 
L 2900 538 
Q 2691 219 2414 64 
Q 2138 -91 1772 -91 
Q 1169 -91 856 284 
Q 544 659 544 1381 
z
M 1991 3584 
L 1991 3584 
z
" transform="scale(0.015625)"/>
       <path id="DejaVuSans-28" d="M 1984 4856 
Q 1566 4138 1362 3434 
Q 1159 2731 1159 2009 
Q 1159 1288 1364 580 
Q 1569 -128 1984 -844 
L 1484 -844 
Q 1016 -109 783 600 
Q 550 1309 550 2009 
Q 550 2706 781 3412 
Q 1013 4119 1484 4856 
L 1984 4856 
z
" transform="scale(0.015625)"/>
       <path id="DejaVuSans-24" d="M 2163 -941 
L 1850 -941 
L 1847 0 
Q 1519 6 1191 76 
Q 863 147 531 288 
L 531 850 
Q 850 650 1176 548 
Q 1503 447 1850 444 
L 1850 1869 
Q 1159 1981 845 2250 
Q 531 2519 531 2988 
Q 531 3497 872 3790 
Q 1213 4084 1850 4128 
L 1850 4863 
L 2163 4863 
L 2163 4138 
Q 2453 4125 2725 4076 
Q 2997 4028 3256 3944 
L 3256 3397 
Q 2997 3528 2723 3600 
Q 2450 3672 2163 3684 
L 2163 2350 
Q 2872 2241 3206 1959 
Q 3541 1678 3541 1191 
Q 3541 663 3186 358 
Q 2831 53 2163 6 
L 2163 -941 
z
M 1850 2406 
L 1850 3688 
Q 1488 3647 1297 3481 
Q 1106 3316 1106 3041 
Q 1106 2772 1282 2622 
Q 1459 2472 1850 2406 
z
M 2163 1806 
L 2163 453 
Q 2559 506 2761 678 
Q 2963 850 2963 1131 
Q 2963 1406 2770 1568 
Q 2578 1731 2163 1806 
z
" transform="scale(0.015625)"/>
       <path id="DejaVuSans-29" d="M 513 4856 
L 1013 4856 
Q 1481 4119 1714 3412 
Q 1947 2706 1947 2009 
Q 1947 1309 1714 600 
Q 1481 -109 1013 -844 
L 513 -844 
Q 928 -128 1133 580 
Q 1338 1288 1338 2009 
Q 1338 2731 1133 3434 
Q 928 4138 513 4856 
z
" transform="scale(0.015625)"/>
       <path id="DejaVuSans-2c" d="M 750 794 
L 1409 794 
L 1409 256 
L 897 -744 
L 494 -744 
L 750 256 
L 750 794 
z
" transform="scale(0.015625)"/>
       <path id="DejaVuSans-64" d="M 2906 2969 
L 2906 4863 
L 3481 4863 
L 3481 0 
L 2906 0 
L 2906 525 
Q 2725 213 2448 61 
Q 2172 -91 1784 -91 
Q 1150 -91 751 415 
Q 353 922 353 1747 
Q 353 2572 751 3078 
Q 1150 3584 1784 3584 
Q 2172 3584 2448 3432 
Q 2725 3281 2906 2969 
z
M 947 1747 
Q 947 1113 1208 752 
Q 1469 391 1925 391 
Q 2381 391 2643 752 
Q 2906 1113 2906 1747 
Q 2906 2381 2643 2742 
Q 2381 3103 1925 3103 
Q 1469 3103 1208 2742 
Q 947 2381 947 1747 
z
" transform="scale(0.015625)"/>
       <path id="DejaVuSans-6c" d="M 603 4863 
L 1178 4863 
L 1178 0 
L 603 0 
L 603 4863 
z
" transform="scale(0.015625)"/>
       <path id="DejaVuSans-69" d="M 603 3500 
L 1178 3500 
L 1178 0 
L 603 0 
L 603 3500 
z
M 603 4863 
L 1178 4863 
L 1178 4134 
L 603 4134 
L 603 4863 
z
" transform="scale(0.015625)"/>
       <path id="DejaVuSans-67" d="M 2906 1791 
Q 2906 2416 2648 2759 
Q 2391 3103 1925 3103 
Q 1463 3103 1205 2759 
Q 947 2416 947 1791 
Q 947 1169 1205 825 
Q 1463 481 1925 481 
Q 2391 481 2648 825 
Q 2906 1169 2906 1791 
z
M 3481 434 
Q 3481 -459 3084 -895 
Q 2688 -1331 1869 -1331 
Q 1566 -1331 1297 -1286 
Q 1028 -1241 775 -1147 
L 775 -588 
Q 1028 -725 1275 -790 
Q 1522 -856 1778 -856 
Q 2344 -856 2625 -561 
Q 2906 -266 2906 331 
L 2906 616 
Q 2728 306 2450 153 
Q 2172 0 1784 0 
Q 1141 0 747 490 
Q 353 981 353 1791 
Q 353 2603 747 3093 
Q 1141 3584 1784 3584 
Q 2172 3584 2450 3431 
Q 2728 3278 2906 2969 
L 2906 3500 
L 3481 3500 
L 3481 434 
z
" transform="scale(0.015625)"/>
      </defs>
      <use xlink:href="#DejaVuSans-52"/>
      <use xlink:href="#DejaVuSans-65" x="64.982422"/>
      <use xlink:href="#DejaVuSans-76" x="126.505859"/>
      <use xlink:href="#DejaVuSans-65" x="185.685547"/>
      <use xlink:href="#DejaVuSans-6e" x="247.208984"/>
      <use xlink:href="#DejaVuSans-75" x="310.587891"/>
      <use xlink:href="#DejaVuSans-65" x="373.966797"/>
      <use xlink:href="#DejaVuSans-20" x="435.490234"/>
      <use xlink:href="#DejaVuSans-28" x="467.277344"/>
      <use xlink:href="#DejaVuSans-24" x="506.291016"/>
      <use xlink:href="#DejaVuSans-29" x="569.914062"/>
      <use xlink:href="#DejaVuSans-2c" x="608.927734"/>
      <use xlink:href="#DejaVuSans-20" x="640.714844"/>
      <use xlink:href="#DejaVuSans-33" x="672.501953"/>
      <use xlink:href="#DejaVuSans-30" x="736.125"/>
      <use xlink:href="#DejaVuSans-20" x="799.748047"/>
      <use xlink:href="#DejaVuSans-64" x="831.535156"/>
      <use xlink:href="#DejaVuSans-61" x="895.011719"/>
      <use xlink:href="#DejaVuSans-79" x="956.291016"/>
      <use xlink:href="#DejaVuSans-20" x="1015.470703"/>
      <use xlink:href="#DejaVuSans-72" x="1047.257812"/>
      <use xlink:href="#DejaVuSans-6f" x="1086.121094"/>
      <use xlink:href="#DejaVuSans-6c" x="1147.302734"/>
      <use xlink:href="#DejaVuSans-6c" x="1175.085938"/>
      <use xlink:href="#DejaVuSans-69" x="1202.869141"/>
      <use xlink:href="#DejaVuSans-6e" x="1230.652344"/>
      <use xlink:href="#DejaVuSans-67" x="1294.03125"/>
      <use xlink:href="#DejaVuSans-20" x="1357.507812"/>
      <use xlink:href="#DejaVuSans-61" x="1389.294922"/>
      <use xlink:href="#DejaVuSans-76" x="1450.574219"/>
      <use xlink:href="#DejaVuSans-65" x="1509.753906"/>
      <use xlink:href="#DejaVuSans-72" x="1571.277344"/>
      <use xlink:href="#DejaVuSans-61" x="1612.390625"/>
      <use xlink:href="#DejaVuSans-67" x="1673.669922"/>
      <use xlink:href="#DejaVuSans-65" x="1737.146484"/>
     </g>
    </g>
    <g id="text_20">
     <!-- 1e8 -->
     <g transform="translate(57.6 38.472)scale(0.1 -0.1)">
      <defs>
       <path id="DejaVuSans-38" d="M 2034 2216 
Q 1584 2216 1326 1975 
Q 1069 1734 1069 1313 
Q 1069 891 1326 650 
Q 1584 409 2034 409 
Q 2484 409 2743 651 
Q 3003 894 3003 1313 
Q 3003 1734 2745 1975 
Q 2488 2216 2034 2216 
z
M 1403 2484 
Q 997 2584 770 2862 
Q 544 3141 544 3541 
Q 544 4100 942 4425 
Q 1341 4750 2034 4750 
Q 2731 4750 3128 4425 
Q 3525 4100 3525 3541 
Q 3525 3141 3298 2862 
Q 3072 2584 2669 2484 
Q 3125 2378 3379 2068 
Q 3634 1759 3634 1313 
Q 3634 634 3220 271 
Q 2806 -91 2034 -91 
Q 1263 -91 848 271 
Q 434 634 434 1313 
Q 434 1759 690 2068 
Q 947 2378 1403 2484 
z
M 1172 3481 
Q 1172 3119 1398 2916 
Q 1625 2713 2034 2713 
Q 2441 2713 2670 2916 
Q 2900 3119 2900 3481 
Q 2900 3844 2670 4047 
Q 2441 4250 2034 4250 
Q 1625 4250 1398 4047 
Q 1172 3844 1172 3481 
z
" transform="scale(0.015625)"/>
      </defs>
      <use xlink:href="#DejaVuSans-31"/>
      <use xlink:href="#DejaVuSans-65" x="63.623047"/>
      <use xlink:href="#DejaVuSans-38" x="125.146484"/>
     </g>
    </g>
   </g>
   <g id="line2d_18">
    <path d="M 73.832727 115.669331 
L 74.722192 112.056904 
L 75.611656 109.866647 
L 76.501121 103.632166 
L 77.390585 95.133415 
L 78.28005 92.588693 
L 79.169514 97.257866 
L 80.058979 98.59818 
L 80.948443 97.746674 
L 81.837908 97.831525 
L 82.727372 93.227275 
L 83.616837 85.514054 
L 84.506301 85.921404 
L 85.395766 93.084942 
L 86.28523 96.137657 
L 87.174695 95.516709 
L 88.064159 96.269202 
L 88.953624 92.694171 
L 89.843088 85.921721 
L 91.622017 95.268948 
L 92.511482 102.198495 
L 93.400946 106.572625 
L 94.290411 118.551741 
L 95.179875 124.941261 
L 96.06934 126.876758 
L 96.958804 132.831991 
L 97.848269 143.05009 
L 98.737733 151.230459 
L 99.627198 157.14469 
L 100.516663 166.125486 
L 101.406127 167.487344 
L 102.295592 165.533833 
L 103.185056 170.813329 
L 104.074521 179.662641 
L 104.963985 184.319153 
L 105.85345 185.316065 
L 106.742914 187.262657 
L 107.632379 183.875469 
L 108.521843 176.791601 
L 109.411308 177.249621 
L 110.300772 184.842605 
L 111.190237 188.973067 
L 112.079701 189.10509 
L 113.85863 184.234462 
L 114.748095 177.407668 
L 115.637559 177.219133 
L 116.527024 181.960592 
L 118.305953 190.189259 
L 119.195417 191.320266 
L 120.084882 186.506026 
L 120.974346 178.608761 
L 121.863811 176.918092 
L 122.753275 183.908668 
L 123.64274 186.944591 
L 124.532204 186.94397 
L 125.421669 187.472901 
L 126.311133 183.571229 
L 127.200598 176.088371 
L 128.090062 173.94794 
L 128.979527 178.890037 
L 129.868991 179.22965 
L 130.758456 178.947382 
L 131.64792 179.475757 
L 133.426849 154.880177 
L 134.316314 150.655871 
L 135.205778 156.575597 
L 136.095243 158.062853 
L 136.984707 156.76287 
L 137.874172 155.794969 
L 139.653101 145.025913 
L 140.542565 143.775004 
L 141.43203 150.824931 
L 142.321494 154.793603 
L 143.210959 157.513425 
L 144.100423 158.267637 
L 144.989888 151.098632 
L 145.879352 142.248437 
L 146.768817 141.899529 
L 147.658281 149.174057 
L 148.547746 151.897316 
L 149.43721 151.030125 
L 150.326675 151.249299 
L 151.216139 145.074178 
L 152.105604 136.719232 
L 152.995068 135.219259 
L 153.884533 142.187996 
L 154.773998 145.130548 
L 155.663462 144.849399 
L 156.552927 145.48733 
L 157.442391 138.097007 
L 158.331856 129.269038 
L 159.22132 135.697665 
L 160.110785 147.58805 
L 161.000249 154.567843 
L 161.889714 155.846846 
L 162.779178 158.479281 
L 163.668643 155.126882 
L 164.558107 149.661048 
L 165.447572 151.762649 
L 166.337036 160.243131 
L 167.226501 164.292913 
L 168.115965 164.174965 
L 169.00543 164.633792 
L 170.784359 153.552206 
L 171.673823 157.8392 
L 172.563288 165.847244 
L 173.452752 170.268761 
L 174.342217 171.016695 
L 175.231681 173.165665 
L 176.121146 145.768598 
L 177.01061 125.423708 
L 177.900075 114.940494 
L 178.789539 117.498809 
L 179.679004 117.434492 
L 180.568468 114.253314 
L 181.457933 112.766655 
L 182.347397 104.602578 
L 183.236862 91.711331 
L 184.126326 90.196533 
L 185.015791 97.606682 
L 185.905255 100.9838 
L 186.79472 100.452447 
L 187.684184 101.167199 
L 188.573649 94.038397 
L 189.463113 83.922815 
L 190.352578 81.001313 
L 191.242042 86.890789 
L 192.131507 89.043702 
L 193.020971 88.859467 
L 193.910436 89.735351 
L 194.7999 83.628263 
L 195.689365 76.047871 
L 196.578829 75.915435 
L 197.468294 80.425618 
L 198.357758 81.704436 
L 199.247223 81.988006 
L 200.136687 82.580157 
L 201.026152 74.325546 
L 201.915616 64.652848 
L 202.805081 83.466106 
L 204.58401 110.86318 
L 206.362939 119.839852 
L 207.252403 114.746828 
L 208.141868 107.686229 
L 209.031333 108.941716 
L 209.920797 120.350307 
L 210.810262 126.065128 
L 211.699726 125.603014 
L 212.589191 126.275031 
L 213.478655 119.043818 
L 214.36812 110.074534 
L 215.257584 110.467023 
L 216.147049 118.979815 
L 217.036513 123.322989 
L 217.925978 122.616545 
L 218.815442 123.009704 
L 219.704907 117.989145 
L 220.594371 111.200999 
L 221.483836 111.248608 
L 222.3733 118.618775 
L 223.262765 121.874935 
L 224.152229 121.82889 
L 225.041694 122.526587 
L 226.820623 100.988507 
L 227.710087 100.727613 
L 228.599552 107.247917 
L 229.489016 111.767083 
L 230.378481 115.460124 
L 231.267945 115.417772 
L 232.15741 110.249819 
L 233.046874 102.295322 
L 233.936339 104.207508 
L 234.825803 111.952846 
L 235.715268 109.832848 
L 236.604732 104.407503 
L 237.494197 100.864681 
L 238.383661 92.752264 
L 239.273126 83.351767 
L 240.16259 84.092056 
L 241.052055 91.082858 
L 241.941519 93.779286 
L 242.830984 93.103732 
L 243.720448 93.913843 
L 244.609913 90.075686 
L 245.499377 84.109903 
L 246.388842 84.441323 
L 247.278306 90.134916 
L 248.167771 93.702675 
L 249.057235 93.320902 
L 249.9467 95.06851 
L 251.725629 67.471824 
L 252.615093 67.366634 
L 253.504558 74.404127 
L 254.394022 76.542916 
L 255.283487 76.175779 
L 256.172951 78.267448 
L 257.062416 74.121585 
L 257.95188 67.690708 
L 258.841345 66.963549 
L 259.730809 73.59465 
L 260.620274 76.436275 
L 261.509738 76.551508 
L 262.399203 84.392971 
L 263.288667 84.274031 
L 264.178132 82.61043 
L 265.067597 86.234036 
L 265.957061 95.169339 
L 266.846526 99.235638 
L 267.73599 100.226652 
L 268.625455 103.343256 
L 269.514919 99.634287 
L 270.404384 94.490098 
L 271.293848 94.64842 
L 272.183313 100.588888 
L 273.072777 102.62717 
L 273.962242 102.761031 
L 274.851706 104.958833 
L 275.741171 101.683954 
L 276.630635 95.819968 
L 277.5201 106.881056 
L 278.409564 120.310937 
L 279.299029 130.106009 
L 280.188493 133.034498 
L 281.077958 139.009961 
L 281.967422 137.865147 
L 282.856887 134.408982 
L 283.746351 138.015411 
L 284.635816 146.778071 
L 285.52528 152.521148 
L 286.414745 154.301824 
L 287.304209 158.003081 
L 288.193674 157.682265 
L 289.083138 154.825587 
L 289.972603 157.394897 
L 290.862067 162.213161 
L 291.751532 167.999165 
L 292.640996 170.052593 
L 293.530461 173.815468 
L 294.419925 168.24384 
L 295.30939 161.295363 
L 296.198854 162.910024 
L 297.088319 170.161295 
L 297.977783 174.333094 
L 298.867248 175.469257 
L 299.756712 178.679856 
L 300.646177 175.148674 
L 301.535641 169.458049 
L 302.425106 171.015067 
L 303.31457 177.699887 
L 304.204035 181.447198 
L 305.093499 182.179801 
L 305.982964 184.165751 
L 306.872428 179.008682 
L 307.761893 172.623236 
L 308.651357 172.896448 
L 309.540822 178.504185 
L 310.430286 181.315236 
L 311.319751 181.459507 
L 312.209215 182.747112 
L 313.09868 179.949588 
L 313.988144 174.439034 
L 314.877609 173.840681 
L 316.656538 182.006188 
L 317.546002 185.428867 
L 318.435467 186.02095 
L 320.214396 168.913247 
L 321.103861 170.511697 
L 321.993325 177.465885 
L 322.88279 179.507396 
L 323.772254 178.377749 
L 324.661719 178.618935 
L 325.551183 172.516217 
L 326.440648 164.239716 
L 327.330112 163.327689 
L 328.219577 167.691971 
L 329.109041 169.46095 
L 329.998506 169.139993 
L 330.88797 169.703061 
L 331.777435 163.592755 
L 332.666899 155.201248 
L 333.556364 156.237944 
L 334.445828 162.681999 
L 335.335293 165.364212 
L 336.224757 165.705137 
L 337.114222 166.624733 
L 338.003686 162.966198 
L 338.893151 156.963587 
L 339.782615 155.949795 
L 340.67208 161.382955 
L 341.561544 163.519826 
L 342.451009 163.569843 
L 343.340473 163.986771 
L 344.229938 159.584635 
L 345.119402 152.212064 
L 346.008867 156.026352 
L 346.898331 164.082136 
L 347.787796 168.306253 
L 348.67726 169.345699 
L 349.566725 171.760978 
L 350.456189 168.248507 
L 351.345654 162.061866 
L 352.235118 163.526086 
L 353.124583 169.81229 
L 354.014047 174.491474 
L 354.903512 176.72624 
L 355.792976 178.312112 
L 356.682441 174.649376 
L 357.571905 168.334751 
L 358.46137 170.779484 
L 359.350834 178.884381 
L 360.240299 183.116236 
L 361.129763 183.441676 
L 362.019228 185.050262 
L 362.908692 175.523247 
L 363.798157 163.202104 
L 364.687621 158.321821 
L 365.577086 162.106234 
L 366.46655 161.82333 
L 367.356015 155.548541 
L 368.245479 151.671798 
L 370.024408 130.423535 
L 370.913873 129.358641 
L 371.803337 136.058846 
L 372.692802 138.911529 
L 373.582267 138.895672 
L 374.471731 140.012852 
L 375.361196 137.453615 
L 376.25066 131.977161 
L 377.140125 133.513631 
L 378.029589 140.658738 
L 378.919054 144.663728 
L 379.808518 146.625687 
L 380.697983 147.928967 
L 381.587447 143.082611 
L 382.476912 136.017439 
L 383.366376 136.001089 
L 384.255841 142.382729 
L 385.145305 144.797147 
L 386.03477 144.585761 
L 386.924234 145.401811 
L 387.813699 127.902951 
L 388.703163 116.306288 
L 389.592628 116.312827 
L 390.482092 121.892746 
L 391.371557 125.506074 
L 392.261021 115.62626 
L 393.150486 109.109124 
L 394.03995 105.292234 
L 394.929415 99.521834 
L 395.818879 101.652523 
L 396.708344 105.700757 
L 397.597808 105.041835 
L 397.597808 105.041835 
" clip-path="url(#pb186fd631d)" style="fill: none; stroke: #1f77b4; stroke-width: 1.5; stroke-linecap: square"/>
   </g>
   <g id="line2d_19">
    <path d="M 73.832727 97.006786 
L 74.722192 93.831647 
L 75.611656 87.150258 
L 76.501121 78.736023 
L 77.390585 76.516686 
L 78.28005 81.143432 
L 79.169514 82.890529 
L 80.058979 82.339341 
L 80.948443 82.895233 
L 81.837908 76.939003 
L 82.727372 68.711026 
L 83.616837 68.826834 
L 84.506301 75.565273 
L 85.395766 78.18828 
L 86.28523 77.643231 
L 87.174695 78.376241 
L 88.064159 71.236269 
L 88.953624 61.504725 
L 89.843088 71.808927 
L 90.732553 77.848185 
L 91.622017 85.734919 
L 92.511482 92.167995 
L 93.400946 96.887418 
L 94.290411 104.973629 
L 95.179875 107.854411 
L 96.06934 113.784734 
L 96.958804 124.211466 
L 97.848269 132.123377 
L 99.627198 144.752939 
L 100.516663 150.462003 
L 101.406127 149.06958 
L 102.295592 154.978201 
L 103.185056 163.795959 
L 104.074521 168.193774 
L 104.963985 169.174253 
L 105.85345 170.985839 
L 106.742914 167.89495 
L 107.632379 162.386956 
L 108.521843 165.35458 
L 109.411308 173.461422 
L 110.300772 177.709969 
L 111.190237 178.275472 
L 112.079701 180.134857 
L 113.85863 164.558933 
L 114.748095 166.16037 
L 116.527024 178.845248 
L 117.416488 184.101403 
L 118.305953 185.951814 
L 119.195417 182.799059 
L 120.084882 176.967357 
L 120.974346 177.695578 
L 121.863811 186.07072 
L 122.753275 190.047766 
L 123.64274 189.970857 
L 124.532204 191.174057 
L 125.421669 187.854343 
L 126.311133 181.892312 
L 127.200598 181.369076 
L 128.090062 187.410772 
L 128.979527 187.819486 
L 129.868991 187.744317 
L 130.758456 188.506242 
L 131.64792 184.622457 
L 132.537385 178.077592 
L 133.426849 178.333939 
L 134.316314 184.036687 
L 135.205778 186.200283 
L 136.095243 186.121133 
L 136.984707 186.962129 
L 137.874172 184.803205 
L 138.763636 182.245762 
L 139.653101 190.050377 
L 140.542565 199.119046 
L 141.43203 206.134278 
L 142.321494 210.767412 
L 143.210959 213.311988 
L 144.989888 216.21886 
L 145.879352 221.366942 
L 146.768817 229.085028 
L 147.658281 233.910531 
L 148.547746 235.056241 
L 149.43721 237.005101 
L 150.326675 238.561245 
M 156.552927 260.932023 
L 157.442391 262.028274 
L 158.331856 267.102045 
L 159.22132 274.752893 
L 160.110785 279.381076 
L 161.000249 280.769386 
L 161.889714 282.932979 
L 162.779178 284.254176 
L 163.668643 285.29844 
L 165.447572 292.332337 
L 166.337036 294.559056 
L 167.226501 295.175205 
L 168.115965 295.416779 
L 171.673823 295.487603 
L 201.915616 295.371959 
L 218.815442 295.21925 
L 222.3733 295.165916 
L 247.278306 295.072841 
L 262.399203 295.021971 
L 266.846526 295.001231 
L 277.5201 294.830447 
L 280.188493 294.755597 
L 282.856887 293.895913 
L 286.414745 293.644472 
L 288.193674 292.014033 
L 289.083138 291.569289 
L 292.640996 291.069145 
L 293.530461 290.761339 
L 295.30939 289.978817 
L 296.198854 289.764521 
L 298.867248 289.500782 
L 299.756712 289.195941 
L 300.646177 288.750409 
L 301.535641 288.580477 
L 305.093499 288.403079 
L 305.982964 288.088625 
L 306.872428 287.650013 
L 307.761893 287.72222 
L 308.651357 287.990596 
L 309.540822 288.108688 
L 311.319751 288.096059 
L 313.09868 287.502378 
L 315.767073 289.214214 
L 317.546002 289.354512 
L 318.435467 289.15415 
L 319.324932 288.806655 
L 320.214396 288.859529 
L 321.993325 289.558879 
L 322.88279 289.733698 
L 323.772254 289.766497 
L 324.661719 289.424033 
L 325.551183 288.955669 
L 326.440648 288.918872 
L 327.330112 289.246997 
L 328.219577 289.394334 
L 329.998506 289.451028 
L 331.777435 288.510221 
L 332.666899 288.40913 
L 333.556364 288.783583 
L 334.445828 288.907719 
L 336.224757 288.927682 
L 337.114222 288.548194 
L 338.003686 287.939003 
L 338.893151 287.850847 
L 339.782615 288.184028 
L 340.67208 288.322841 
L 342.451009 288.313699 
L 344.229938 287.386102 
L 345.119402 287.333798 
L 346.008867 287.719269 
L 346.898331 287.872057 
L 348.67726 287.832747 
L 349.566725 287.345425 
L 350.456189 286.706123 
L 351.345654 286.738186 
L 352.235118 287.203997 
L 353.124583 287.407316 
L 354.903512 287.370656 
L 355.792976 286.828041 
L 356.682441 286.120446 
L 357.571905 286.269799 
L 359.350834 287.041523 
L 361.129763 287.106058 
L 362.019228 286.885321 
L 362.908692 286.521527 
L 363.798157 286.748803 
L 364.687621 287.385591 
L 365.577086 287.712744 
L 366.46655 287.365595 
L 367.356015 286.892987 
L 369.134944 285.239325 
L 370.024408 285.196259 
L 370.913873 285.682501 
L 371.803337 285.940556 
L 373.582267 285.979153 
L 374.471731 285.681185 
L 375.361196 285.146328 
L 376.25066 285.335371 
L 377.140125 285.978062 
L 378.029589 286.292399 
L 379.808518 286.392016 
L 380.697983 286.241537 
L 381.587447 285.822136 
M 383.366376 287.165647 
L 384.255841 287.499739 
L 386.03477 287.606064 
L 387.813699 286.805789 
L 388.703163 286.775192 
L 389.592628 287.094668 
L 390.482092 287.181961 
L 393.150486 287.095173 
L 394.03995 287.211172 
L 394.929415 287.781861 
L 395.818879 288.517465 
L 396.708344 288.857987 
L 398.487273 288.656182 
L 398.487273 288.656182 
" clip-path="url(#pb186fd631d)" style="fill: none; stroke: #ff7f0e; stroke-width: 1.5; stroke-linecap: square"/>
   </g>
   <g id="line2d_20">
    <path d="M 73.832727 288.297469 
L 74.722192 287.858396 
L 75.611656 287.947935 
L 76.501121 288.478766 
L 77.390585 288.74069 
L 79.169514 288.73732 
L 80.058979 288.522962 
L 80.948443 288.105122 
L 81.837908 288.144634 
L 82.727372 288.59998 
L 84.506301 288.500803 
L 85.395766 288.505162 
L 86.28523 288.138458 
L 87.174695 287.55884 
L 88.064159 287.533956 
L 89.843088 288.034224 
L 91.622017 288.180873 
L 92.511482 287.96845 
L 93.400946 287.443842 
L 94.290411 287.613394 
L 95.179875 288.02801 
L 96.06934 288.296336 
L 97.848269 288.540509 
L 98.737733 288.507505 
L 99.627198 288.265129 
L 100.516663 288.456554 
L 101.406127 288.945952 
L 102.295592 289.177275 
L 104.074521 289.267133 
L 104.963985 289.116188 
L 105.85345 288.771005 
L 106.742914 288.909267 
L 107.632379 289.360861 
L 108.521843 289.581444 
L 110.300772 289.62787 
L 111.190237 289.48088 
L 112.079701 289.143143 
L 112.969166 289.144386 
L 114.748095 290.000112 
L 115.637559 290.231902 
L 116.527024 290.294026 
L 117.416488 290.183507 
L 118.305953 289.883038 
L 119.195417 289.992871 
L 120.084882 290.570772 
L 120.974346 290.817762 
L 123.64274 290.762083 
L 124.532204 290.501144 
L 125.421669 290.543932 
L 126.311133 290.974764 
L 127.200598 291.1784 
L 128.979527 291.199799 
L 129.868991 290.398325 
L 130.758456 289.254137 
L 131.64792 288.776263 
L 132.537385 289.06358 
L 135.205778 288.818499 
L 136.095243 288.296529 
L 136.984707 287.43816 
L 137.874172 287.078894 
L 139.653101 287.523228 
L 140.542565 287.511912 
L 141.43203 287.371887 
L 142.321494 286.911296 
L 143.210959 286.045218 
L 144.100423 285.670834 
L 144.989888 285.934062 
L 145.879352 285.972045 
L 147.658281 285.767878 
L 148.547746 284.966497 
L 149.43721 283.953937 
L 150.326675 283.394669 
L 151.216139 283.525702 
L 152.105604 283.479385 
L 152.995068 281.668642 
L 153.884533 280.358682 
L 155.663462 274.891878 
L 156.552927 273.905959 
L 157.442391 274.919744 
L 158.331856 275.429538 
L 160.110785 275.414534 
L 161.000249 274.350891 
L 161.889714 272.639171 
L 162.779178 272.051933 
L 163.668643 272.846328 
L 164.558107 273.267206 
L 166.337036 273.12115 
L 167.226501 272.450779 
L 168.115965 271.266044 
L 169.00543 270.970382 
L 169.894894 271.787601 
L 170.784359 272.222855 
L 172.563288 272.283884 
L 174.342217 265.915326 
L 175.231681 264.569771 
L 176.121146 265.557708 
L 177.01061 266.197827 
L 177.900075 266.312977 
L 178.789539 266.242087 
L 179.679004 267.047828 
L 180.568468 267.401092 
L 181.457933 269.405207 
L 182.347397 272.17966 
L 183.236862 273.91252 
L 185.015791 274.102394 
L 185.905255 273.088613 
L 186.79472 271.698712 
L 187.684184 271.703895 
L 188.573649 273.358421 
L 189.463113 274.272056 
L 190.352578 274.191653 
M 192.131507 273.482194 
L 193.020971 272.534398 
L 193.910436 272.57361 
L 194.7999 273.718418 
L 195.689365 274.237681 
L 197.468294 273.980923 
L 198.357758 273.412522 
L 199.247223 272.461786 
L 201.026152 278.201088 
L 201.915616 280.150247 
L 203.694545 279.938066 
L 204.58401 274.943581 
L 205.473474 270.816347 
L 206.362939 267.894778 
L 207.252403 265.977376 
L 208.141868 265.436574 
L 209.920797 263.35691 
L 210.810262 259.88264 
L 211.699726 255.709677 
L 212.589191 253.980234 
L 213.478655 254.737242 
L 214.36812 255.007437 
L 216.147049 253.9003 
L 217.036513 251.275598 
L 217.925978 249.067036 
L 218.815442 248.570346 
L 219.704907 249.063934 
L 220.594371 249.070381 
L 221.483836 247.955573 
L 222.3733 247.311188 
L 224.152229 243.215572 
L 225.041694 242.000787 
L 225.931158 242.286658 
L 226.820623 242.063534 
L 227.710087 241.492412 
L 228.599552 241.067264 
L 229.489016 234.603707 
L 230.378481 229.444477 
L 231.267945 230.309184 
L 232.15741 233.031976 
L 233.046874 235.221931 
L 233.936339 236.606719 
L 234.825803 236.366695 
L 235.715268 232.749077 
L 236.604732 229.609942 
L 239.273126 233.205965 
L 240.16259 232.464033 
L 241.052055 232.034908 
L 241.941519 223.8903 
L 242.830984 218.140823 
L 243.720448 215.977732 
L 244.609913 216.072976 
L 245.499377 215.369314 
L 246.388842 214.316126 
L 247.278306 213.489023 
L 248.167771 209.118026 
L 249.057235 206.058368 
L 249.9467 205.419772 
L 250.836164 206.471109 
L 251.725629 207.024933 
L 252.615093 206.549842 
L 253.504558 206.467621 
L 255.283487 199.828949 
L 257.062416 207.698001 
L 257.95188 210.482925 
L 258.841345 211.041532 
L 259.730809 211.804848 
L 261.509738 205.349638 
L 262.399203 206.543077 
L 263.288667 209.24457 
L 264.178132 209.815924 
L 265.067597 211.358092 
L 265.957061 211.828594 
L 266.846526 211.602018 
L 267.73599 208.930763 
L 269.514919 220.764615 
L 270.404384 224.813086 
L 271.293848 226.172736 
L 272.183313 227.873958 
L 273.072777 225.515172 
L 273.962242 222.79502 
L 275.741171 228.282414 
L 276.630635 229.774287 
L 277.5201 229.917107 
L 278.409564 230.32938 
L 279.299029 228.539056 
L 280.188493 225.489763 
L 281.077958 226.897523 
L 281.967422 229.847715 
L 282.856887 231.724008 
L 283.746351 232.049118 
L 284.635816 232.662087 
L 285.52528 230.522282 
L 286.414745 227.400905 
L 287.304209 229.533241 
L 288.193674 233.467818 
L 289.083138 236.013456 
L 289.972603 236.831789 
L 290.862067 238.011413 
L 292.640996 227.901746 
L 293.530461 223.602313 
L 294.419925 222.79892 
L 295.30939 224.038947 
L 296.198854 223.629338 
L 297.088319 223.527537 
L 297.977783 221.652339 
L 298.867248 218.034667 
L 299.756712 219.570692 
L 300.646177 223.249105 
L 301.535641 225.427801 
L 302.425106 225.865561 
L 303.31457 226.516428 
L 304.204035 225.7215 
L 305.093499 223.530699 
L 305.982964 224.703664 
L 306.872428 228.253836 
L 307.761893 230.409458 
L 308.651357 230.781318 
L 309.540822 231.347137 
L 310.430286 230.436344 
L 311.319751 228.723648 
L 312.209215 230.513566 
L 313.09868 234.214075 
L 313.988144 236.276587 
M 315.767073 237.69037 
L 317.546002 223.074463 
L 318.435467 224.517969 
M 320.214396 235.26436 
L 321.103861 239.001272 
L 321.993325 239.650981 
L 323.772254 228.266071 
L 324.661719 225.777026 
L 325.551183 227.550463 
L 326.440648 228.528092 
L 327.330112 227.868239 
L 328.219577 227.558741 
L 329.998506 214.705201 
L 330.88797 212.327044 
M 332.666899 215.896067 
L 333.556364 215.254789 
L 334.445828 214.905317 
L 336.224757 203.681451 
L 337.114222 201.350401 
L 338.003686 203.145439 
L 338.893151 203.821146 
L 339.782615 203.56243 
L 340.67208 203.434591 
L 342.451009 195.479458 
L 343.340473 200.787361 
L 344.229938 207.725009 
L 345.119402 211.736051 
L 346.008867 210.797684 
L 346.898331 211.599378 
L 348.67726 199.358058 
L 349.566725 201.329253 
L 350.456189 207.108424 
L 351.345654 210.790824 
L 352.235118 211.582725 
L 353.124583 210.690844 
L 354.014047 208.596609 
L 354.903512 204.41471 
L 355.792976 208.106564 
L 356.682441 214.75993 
L 357.571905 218.083469 
L 358.46137 217.305809 
L 359.350834 218.049202 
L 360.240299 214.458875 
L 361.129763 209.71165 
L 362.019228 211.686799 
L 362.908692 216.561039 
L 363.798157 218.921082 
L 364.687621 215.511393 
L 365.577086 213.151758 
L 367.356015 201.662651 
L 368.245479 201.66127 
L 369.134944 205.275526 
L 370.024408 206.978969 
L 370.913873 206.645084 
L 371.803337 206.590646 
L 372.692802 205.226009 
L 373.582267 202.172036 
L 374.471731 206.721947 
L 375.361196 213.042036 
L 376.25066 216.763876 
L 377.140125 217.177371 
L 378.029589 217.870215 
L 378.919054 217.373844 
L 379.808518 216.664859 
L 380.697983 217.927909 
L 381.587447 222.648943 
L 382.476912 225.062197 
L 383.366376 225.142183 
L 384.255841 225.616806 
L 385.145305 204.193796 
L 386.03477 190.602777 
L 386.924234 183.068791 
L 387.813699 181.724797 
L 388.703163 179.361839 
L 390.482092 166.620795 
L 391.371557 165.344368 
L 392.261021 158.447726 
L 393.150486 155.431789 
L 394.03995 154.774742 
L 394.929415 152.167097 
L 396.708344 141.968908 
L 397.597808 138.356858 
L 397.597808 138.356858 
" clip-path="url(#pb186fd631d)" style="fill: none; stroke: #2ca02c; stroke-width: 1.5; stroke-linecap: square"/>
   </g>
   <g id="line2d_21">
    <path d="M 73.832727 132.561855 
L 74.722192 129.675448 
L 75.611656 131.112662 
L 76.501121 131.934688 
L 77.390585 131.360079 
L 78.28005 131.105703 
L 79.169514 129.024123 
L 80.058979 124.8244 
L 80.948443 123.934383 
L 81.837908 126.382946 
L 82.727372 127.548245 
L 83.616837 127.422747 
L 84.506301 127.524714 
L 85.395766 123.995121 
L 86.28523 119.679744 
L 87.174695 138.566681 
L 88.953624 161.852927 
L 89.843088 168.180372 
L 92.511482 183.899507 
L 93.400946 187.219814 
L 95.179875 205.685179 
L 96.958804 217.818695 
L 97.848269 222.353101 
L 99.627198 229.110361 
L 100.516663 235.642597 
L 101.406127 240.256585 
L 102.295592 242.190233 
L 103.185056 243.660674 
L 104.074521 241.701492 
L 104.963985 238.534968 
L 105.85345 238.771634 
L 106.742914 242.994169 
L 107.632379 245.171901 
L 108.521843 245.266907 
L 109.411308 245.65811 
L 110.300772 243.385363 
L 111.190237 239.944205 
L 113.85863 247.303326 
L 114.748095 248.847153 
L 115.637559 249.199716 
L 116.527024 244.853194 
L 117.416488 239.278722 
L 118.305953 236.692152 
L 119.195417 237.323348 
L 120.084882 237.801277 
L 120.974346 237.292324 
L 121.863811 236.942077 
L 122.753275 234.79738 
L 123.64274 230.577836 
L 124.532204 229.213824 
L 125.421669 231.319276 
L 126.311133 231.757016 
L 127.200598 231.48378 
L 128.090062 231.468718 
L 128.979527 220.560142 
L 129.868991 211.019544 
L 130.758456 206.767624 
L 131.64792 208.796755 
L 132.537385 208.966344 
L 134.316314 206.650199 
L 135.205778 202.692647 
L 136.095243 195.121814 
L 136.984707 193.38863 
L 137.874172 195.947397 
L 138.763636 195.73461 
L 139.653101 196.386001 
L 140.542565 196.047079 
L 141.43203 192.480852 
L 142.321494 187.274369 
L 143.210959 188.775579 
L 144.100423 194.274737 
L 144.989888 198.013396 
L 145.879352 199.993807 
L 146.768817 200.784377 
L 147.658281 196.934449 
L 148.547746 192.281334 
L 149.43721 191.469145 
L 150.326675 195.374309 
L 151.216139 197.098771 
L 152.105604 196.96045 
L 152.995068 197.234845 
L 154.773998 188.243982 
L 155.663462 196.144336 
L 156.552927 205.237328 
L 157.442391 211.63976 
L 159.22132 214.815167 
L 160.110785 209.783063 
L 161.000249 203.747817 
L 161.889714 203.036133 
L 162.779178 209.896907 
L 163.668643 213.135831 
L 164.558107 213.185883 
L 165.447572 213.475288 
L 167.226501 202.189526 
L 168.115965 202.273325 
L 169.00543 206.113133 
L 169.894894 208.103805 
L 170.784359 207.59267 
L 171.673823 207.470001 
L 172.563288 203.195708 
L 173.452752 197.54929 
L 174.342217 197.982108 
L 175.231681 202.617438 
L 176.121146 204.694172 
L 177.01061 204.539557 
L 177.900075 204.687528 
L 178.789539 202.541822 
L 179.679004 198.243316 
L 180.568468 199.90855 
L 181.457933 204.321684 
L 182.347397 206.632897 
L 183.236862 206.655472 
L 184.126326 207.257163 
L 185.015791 191.018681 
L 185.905255 179.304978 
L 186.79472 177.535784 
L 187.684184 182.732472 
L 188.573649 185.339276 
L 189.463113 184.614917 
L 190.352578 184.323667 
L 191.242042 181.605539 
L 192.131507 176.426046 
L 193.020971 179.134117 
L 193.910436 184.865243 
L 194.7999 187.674645 
L 195.689365 188.567302 
L 196.578829 189.101275 
L 197.468294 186.410422 
L 198.357758 182.409861 
L 199.247223 183.847291 
L 200.136687 189.095844 
L 201.026152 192.163118 
L 201.915616 191.979356 
L 202.805081 192.389937 
L 203.694545 181.561258 
L 204.58401 172.872079 
L 205.473474 166.875614 
L 206.362939 163.990717 
L 207.252403 163.58436 
L 209.031333 158.944389 
L 209.920797 153.830142 
L 210.810262 145.938682 
L 212.589191 166.159676 
L 213.478655 171.750383 
L 214.36812 171.735514 
L 215.257584 172.362161 
L 217.036513 149.756003 
L 217.925978 143.369064 
L 218.815442 146.482239 
L 219.704907 146.772147 
L 220.594371 144.667544 
L 221.483836 143.192346 
L 222.3733 135.605613 
L 223.262765 126.768719 
L 224.152229 121.125496 
L 225.041694 121.991076 
L 225.931158 122.257638 
L 226.820623 120.625919 
L 227.710087 119.488732 
L 228.599552 112.793703 
L 229.489016 105.243912 
L 230.378481 110.390595 
L 231.267945 116.866509 
L 233.046874 127.3582 
L 233.936339 128.508802 
L 234.825803 119.315318 
L 235.715268 111.640478 
L 236.604732 108.271164 
L 237.494197 110.851344 
L 238.383661 111.869815 
L 239.273126 110.197944 
L 240.16259 109.908304 
L 241.052055 95.717199 
L 241.941519 84.112736 
L 242.830984 87.213953 
L 243.720448 95.735278 
L 244.609913 101.226116 
L 245.499377 101.188464 
L 246.388842 102.120638 
L 247.278306 98.093639 
L 248.167771 92.273753 
L 249.057235 94.011178 
L 249.9467 100.784269 
L 250.836164 106.59988 
L 251.725629 108.007477 
L 252.615093 108.870706 
L 253.504558 104.262999 
L 254.394022 98.823135 
L 255.283487 100.360158 
L 256.172951 106.037626 
L 257.062416 109.150197 
L 257.95188 109.696188 
L 258.841345 110.828534 
L 259.730809 108.213619 
L 260.620274 104.430639 
L 261.509738 111.99785 
L 262.399203 120.640454 
L 263.288667 127.075056 
L 265.067597 134.416225 
L 265.957061 133.454464 
L 266.846526 130.991244 
L 268.625455 155.280593 
L 269.514919 163.32444 
L 270.404384 165.930014 
L 271.293848 169.477084 
L 272.183313 169.826562 
L 273.072777 168.667626 
L 273.962242 172.630762 
L 274.851706 180.04821 
L 275.741171 185.192312 
L 276.630635 186.982113 
L 277.5201 189.67674 
L 278.409564 187.767087 
L 279.299029 185.326179 
L 280.188493 189.10663 
L 281.077958 195.792 
L 281.967422 200.593574 
L 282.856887 202.358717 
L 283.746351 204.97095 
L 284.635816 204.926261 
L 285.52528 203.649222 
L 286.414745 206.694952 
L 287.304209 212.282106 
L 288.193674 216.127674 
L 289.083138 217.701532 
L 289.972603 219.912568 
L 290.862067 220.040124 
L 291.751532 217.80272 
L 292.640996 219.866183 
L 293.530461 223.117227 
L 294.419925 226.939519 
L 295.30939 228.293155 
L 296.198854 230.248335 
L 297.088319 229.756677 
L 297.977783 228.337048 
L 298.867248 229.727221 
L 299.756712 233.687102 
L 300.646177 236.176302 
L 301.535641 236.890992 
L 302.425106 238.210918 
L 303.31457 236.814653 
L 304.204035 234.526146 
L 305.093499 236.931951 
L 305.982964 241.321981 
L 306.872428 244.056939 
L 307.761893 244.556031 
L 308.651357 245.470072 
L 309.540822 242.920504 
L 310.430286 239.890606 
L 311.319751 239.8764 
L 312.209215 242.682907 
L 313.09868 244.036191 
L 313.988144 244.058362 
L 314.877609 244.414447 
L 315.767073 241.559191 
L 316.656538 237.740446 
L 317.546002 236.87754 
L 318.435467 240.140637 
L 319.324932 242.274028 
L 320.214396 243.88302 
L 321.103861 243.702727 
L 321.993325 241.128883 
L 322.88279 237.581286 
L 323.772254 236.882915 
L 324.661719 238.498976 
L 325.551183 239.435797 
L 326.440648 239.20756 
L 327.330112 239.264989 
L 329.109041 230.019521 
L 329.998506 229.924833 
L 330.88797 232.550499 
L 331.777435 233.955418 
L 332.666899 233.885329 
L 333.556364 234.194982 
L 335.335293 221.00683 
L 336.224757 219.749534 
L 337.114222 222.354801 
L 338.003686 223.246382 
L 338.893151 222.921246 
L 339.782615 222.883595 
L 340.67208 220.053999 
L 341.561544 216.054177 
L 342.451009 216.381258 
L 343.340473 219.653411 
L 344.229938 221.35803 
L 345.119402 221.382659 
L 346.008867 221.751974 
L 346.898331 219.627096 
L 347.787796 216.360479 
L 348.67726 216.833188 
L 349.566725 220.159747 
L 350.456189 222.026562 
L 351.345654 222.836919 
L 352.235118 223.27798 
L 353.124583 207.887818 
L 354.014047 196.954008 
L 354.903512 194.05897 
L 355.792976 196.802563 
L 356.682441 197.077679 
L 357.571905 196.18998 
L 358.46137 195.628777 
L 359.350834 191.270091 
L 360.240299 184.685566 
L 361.129763 187.008209 
L 362.019228 192.4147 
L 362.908692 194.899361 
L 363.798157 192.775044 
L 364.687621 191.8969 
L 366.46655 181.736919 
L 367.356015 181.673782 
L 368.245479 185.621931 
L 369.134944 187.895897 
L 370.913873 188.588229 
L 371.803337 186.794167 
L 372.692802 183.617697 
L 373.582267 184.316625 
L 374.471731 187.756128 
L 375.361196 189.358737 
L 376.25066 189.362041 
L 377.140125 189.668627 
L 378.029589 188.608451 
L 378.919054 186.280998 
L 379.808518 200.732106 
L 380.697983 211.888458 
L 381.587447 219.40237 
L 382.476912 221.037559 
L 383.366376 223.333173 
L 385.145305 207.556568 
L 386.03477 205.290631 
L 386.924234 209.174059 
L 387.813699 210.298693 
L 388.703163 208.536872 
L 389.592628 207.496533 
L 390.482092 205.917298 
L 392.261021 203.785176 
L 393.150486 201.765134 
L 394.03995 198.912178 
L 395.818879 189.771373 
L 396.708344 184.037722 
L 397.597808 180.045724 
L 397.597808 180.045724 
" clip-path="url(#pb186fd631d)" style="fill: none; stroke: #d62728; stroke-width: 1.5; stroke-linecap: square"/>
   </g>
   <g id="line2d_22">
    <path d="M 73.832727 176.360765 
L 74.722192 174.676182 
L 75.611656 174.223333 
L 76.501121 172.831394 
L 77.390585 171.966933 
L 78.28005 167.29294 
L 79.169514 160.151624 
L 80.058979 156.783266 
L 80.948443 158.360615 
L 81.837908 158.260758 
L 82.727372 157.395801 
L 83.616837 156.861138 
L 84.506301 152.909907 
L 85.395766 146.129663 
L 86.28523 150.384375 
L 88.064159 161.355282 
L 88.953624 163.576766 
L 89.843088 166.223471 
L 90.732553 166.460612 
L 91.622017 164.234446 
L 92.511482 165.910925 
L 93.400946 168.693037 
L 94.290411 174.910901 
L 95.179875 182.163855 
L 96.06934 187.615137 
L 96.958804 189.943303 
L 97.848269 189.699761 
L 98.737733 192.980726 
L 99.627198 197.164264 
L 101.406127 207.380853 
L 102.295592 209.282415 
L 103.185056 207.321688 
L 104.074521 203.515132 
L 104.963985 205.218929 
L 105.85345 212.277634 
L 106.742914 216.055699 
L 107.632379 216.550265 
L 108.521843 217.629175 
L 109.411308 216.195727 
L 110.300772 213.141405 
L 111.190237 215.974506 
L 112.079701 222.180901 
L 112.969166 225.78159 
L 113.85863 228.536054 
L 114.748095 229.496966 
L 115.637559 221.020649 
L 116.527024 213.729148 
L 117.416488 210.668279 
L 118.305953 212.575932 
L 119.195417 214.062795 
L 120.084882 213.822438 
L 120.974346 214.039798 
L 121.863811 209.915445 
L 122.753275 204.356552 
L 123.64274 203.257994 
L 124.532204 207.864698 
L 125.421669 209.560206 
L 126.311133 209.173553 
L 127.200598 209.106858 
L 128.090062 203.237307 
L 128.979527 196.293572 
L 129.868991 194.96322 
L 130.758456 199.240579 
L 131.64792 201.076258 
L 132.537385 200.579822 
L 133.426849 200.729415 
L 134.316314 194.795154 
L 135.205778 187.620579 
L 136.095243 185.3026 
L 136.984707 187.524309 
L 137.874172 186.773106 
L 138.763636 185.757436 
L 139.653101 186.323065 
L 140.542565 182.323141 
L 141.43203 176.560703 
L 142.321494 181.872949 
L 143.210959 189.215404 
L 144.100423 194.246341 
L 144.989888 197.146362 
L 145.879352 198.382644 
L 146.768817 192.514134 
L 147.658281 185.89841 
L 148.547746 185.685345 
L 149.43721 190.723414 
L 150.326675 193.058428 
L 151.216139 192.697978 
L 152.105604 192.992318 
L 152.995068 188.425221 
L 153.884533 182.89238 
L 154.773998 185.157426 
L 155.663462 191.646277 
L 156.552927 195.152743 
L 157.442391 189.525002 
L 158.331856 185.028662 
L 160.110785 160.498649 
L 161.000249 158.838205 
L 161.889714 162.067289 
L 162.779178 163.390861 
L 163.668643 162.818043 
L 164.558107 162.692476 
L 165.447572 157.448776 
L 166.337036 148.533438 
L 167.226501 145.705902 
L 168.115965 150.418819 
L 169.00543 152.428976 
L 169.894894 152.032114 
L 170.784359 152.100533 
L 171.673823 146.764676 
L 172.563288 138.741 
L 173.452752 139.246708 
L 174.342217 145.498712 
L 175.231681 148.787271 
L 176.121146 148.963386 
L 177.01061 149.568968 
L 177.900075 146.312768 
L 178.789539 140.280429 
L 179.679004 140.673366 
L 180.568468 146.020407 
L 181.457933 148.875173 
L 182.347397 149.136926 
L 183.236862 150.219012 
L 185.015791 143.573134 
L 185.905255 148.9659 
L 186.79472 160.814723 
L 187.684184 166.56823 
L 188.573649 169.4933 
L 189.463113 171.572859 
L 190.352578 169.7822 
L 191.242042 165.180419 
L 192.131507 166.658868 
L 193.020971 175.745807 
L 193.910436 181.532169 
L 194.7999 181.929689 
L 195.689365 183.061786 
L 196.578829 177.312456 
L 197.468294 170.769321 
L 198.357758 171.36257 
L 199.247223 178.167543 
L 200.136687 182.557671 
L 201.026152 182.537237 
L 201.915616 183.235417 
L 203.694545 166.71705 
L 204.58401 162.68524 
L 205.473474 162.947311 
L 206.362939 164.836791 
L 207.252403 163.567226 
L 208.141868 163.118282 
L 209.920797 139.539814 
L 210.810262 139.896622 
L 211.699726 145.900525 
L 212.589191 148.790776 
L 213.478655 147.435757 
L 214.36812 146.920645 
L 216.147049 130.424093 
L 217.036513 126.451816 
L 217.925978 130.48813 
L 218.815442 132.053409 
L 219.704907 130.569623 
L 220.594371 130.319394 
L 222.3733 112.993281 
L 223.262765 111.682179 
L 224.152229 114.91926 
L 225.041694 116.630104 
L 225.931158 115.672734 
L 226.820623 115.077191 
L 227.710087 110.487087 
L 228.599552 104.491143 
L 229.489016 108.987153 
L 230.378481 115.901737 
L 231.267945 121.310862 
L 232.15741 125.849948 
L 233.046874 127.135712 
L 234.825803 116.68972 
L 235.715268 122.775258 
L 236.604732 130.221481 
L 237.494197 133.198836 
L 238.383661 133.681244 
L 239.273126 135.229583 
L 240.16259 131.19469 
L 241.052055 126.202935 
L 241.941519 129.31816 
L 242.830984 136.529967 
L 243.720448 141.732099 
L 244.609913 139.554262 
L 245.499377 139.50034 
L 246.388842 135.359481 
L 247.278306 128.278923 
L 248.167771 130.951693 
L 249.057235 137.310147 
L 249.9467 141.917794 
L 251.725629 145.478999 
L 252.615093 127.027329 
L 253.504558 112.46897 
L 254.394022 103.359432 
L 255.283487 102.226741 
L 256.172951 99.020536 
L 257.062416 93.984606 
L 257.95188 90.457033 
L 258.841345 81.18884 
L 259.730809 69.445179 
L 260.620274 65.755362 
L 261.509738 67.961856 
L 262.399203 69.772889 
L 263.288667 68.289183 
L 264.178132 70.097737 
L 265.067597 63.527493 
L 265.957061 55.454593 
L 266.846526 53.568 
L 267.73599 57.416361 
L 268.625455 59.31592 
L 269.514919 58.829178 
L 271.293848 58.38591 
L 272.183313 54.761245 
L 273.072777 55.845082 
L 273.962242 62.842517 
L 274.851706 67.449846 
L 275.741171 68.18043 
L 276.630635 70.269688 
L 277.5201 67.766863 
L 278.409564 63.527886 
L 280.188493 95.649092 
L 281.077958 108.541571 
L 282.856887 122.449398 
L 283.746351 125.147848 
L 284.635816 126.831138 
L 285.52528 132.891251 
L 286.414745 145.225433 
L 287.304209 154.605681 
L 288.193674 158.444247 
L 289.083138 162.823613 
L 289.972603 164.608368 
L 290.862067 164.313881 
L 291.751532 168.863325 
L 292.640996 175.626812 
L 293.530461 183.603178 
L 295.30939 190.707747 
L 296.198854 189.323531 
L 297.088319 186.643022 
L 297.977783 188.108281 
L 298.867248 194.787521 
L 299.756712 199.188444 
L 300.646177 200.419194 
L 301.535641 202.556717 
L 302.425106 201.658414 
L 303.31457 199.094611 
L 304.204035 201.706732 
L 305.093499 207.347408 
L 305.982964 210.841332 
L 306.872428 211.790222 
L 307.761893 213.393781 
L 308.651357 212.518173 
L 309.540822 210.273849 
L 310.430286 212.675968 
L 312.209215 221.828763 
L 313.09868 222.593455 
L 313.988144 223.930172 
L 314.877609 220.218443 
L 315.767073 215.497299 
L 316.656538 216.19195 
L 318.435467 224.342347 
L 319.324932 227.802202 
L 320.214396 228.214431 
L 321.103861 224.974513 
L 321.993325 221.054738 
L 322.88279 222.757938 
L 323.772254 227.256996 
L 324.661719 230.048722 
L 325.551183 230.225391 
L 326.440648 230.952445 
L 328.219577 215.824011 
L 329.109041 213.23356 
L 329.998506 217.067636 
L 330.88797 219.091147 
L 331.777435 219.298881 
L 332.666899 219.027969 
L 333.556364 215.023876 
L 334.445828 210.034256 
L 335.335293 208.669182 
L 336.224757 211.62499 
L 337.114222 212.883843 
L 338.893151 212.842417 
L 339.782615 204.179067 
L 340.67208 197.539875 
L 341.561544 197.420698 
L 342.451009 201.976239 
L 343.340473 204.219021 
L 344.229938 204.265231 
L 345.119402 204.663084 
L 346.008867 202.503067 
L 346.898331 198.91174 
L 347.787796 200.142412 
L 348.67726 204.489832 
L 349.566725 206.832035 
L 350.456189 207.797687 
L 351.345654 208.28623 
L 353.124583 198.568062 
L 354.014047 203.71112 
L 354.903512 211.451226 
L 355.792976 216.245483 
L 356.682441 216.09672 
L 357.571905 216.323788 
L 359.350834 204.01865 
L 360.240299 203.477839 
L 361.129763 206.977089 
L 362.019228 208.074792 
L 362.908692 203.969398 
L 363.798157 201.175387 
L 365.577086 187.652137 
L 366.46655 192.404285 
L 367.356015 198.501728 
L 368.245479 202.110652 
L 369.134944 202.244085 
L 370.024408 202.874242 
L 371.803337 192.789771 
L 372.692802 191.469232 
L 373.582267 194.953391 
L 374.471731 196.41323 
L 375.361196 195.71741 
L 376.25066 195.234319 
L 377.140125 192.298067 
L 378.029589 188.219547 
L 378.919054 190.710523 
L 379.808518 195.109854 
L 380.697983 197.342732 
L 381.587447 197.028107 
L 382.476912 197.125301 
L 383.366376 193.76988 
L 384.255841 189.429004 
L 385.145305 192.574857 
L 386.03477 198.571174 
L 386.924234 202.008593 
L 387.813699 202.562107 
L 388.703163 202.144542 
L 389.592628 199.739947 
L 390.482092 198.361679 
L 391.371557 203.056123 
L 393.150486 196.78085 
L 395.818879 180.776209 
L 396.708344 174.158134 
L 397.597808 175.644111 
L 397.597808 175.644111 
" clip-path="url(#pb186fd631d)" style="fill: none; stroke: #9467bd; stroke-width: 1.5; stroke-linecap: square"/>
   </g>
   <g id="line2d_23">
    <path d="M 73.832727 176.207668 
L 74.722192 177.043647 
L 75.611656 175.37812 
L 76.501121 174.510548 
L 77.390585 171.026867 
L 78.28005 166.201293 
L 79.169514 166.07932 
L 80.058979 169.957581 
L 80.948443 172.224239 
L 81.837908 172.193 
L 82.727372 172.590218 
L 83.616837 170.285323 
L 84.506301 164.867328 
L 85.395766 164.039805 
L 86.28523 165.509211 
L 87.174695 167.77705 
L 88.064159 168.172328 
L 88.953624 169.038672 
L 90.732553 166.140712 
L 92.511482 174.830647 
L 93.400946 176.708149 
L 94.290411 186.640326 
L 95.179875 193.27812 
L 96.06934 196.862559 
L 96.958804 198.79608 
L 97.848269 203.658837 
L 98.737733 210.602696 
L 99.627198 214.161103 
L 100.516663 219.076581 
L 101.406127 221.788035 
L 102.295592 221.612623 
L 103.185056 219.51489 
L 104.074521 221.501716 
L 104.963985 227.054258 
L 105.85345 229.747621 
L 106.742914 230.055522 
L 107.632379 230.633754 
L 108.521843 229.727868 
L 109.411308 227.53638 
L 110.300772 229.785367 
L 111.190237 235.568026 
L 112.079701 239.703508 
L 112.969166 238.436843 
L 113.85863 238.344192 
L 114.748095 236.074527 
L 115.637559 231.606215 
L 116.527024 230.240046 
L 117.416488 232.421368 
L 118.305953 234.029604 
L 119.195417 233.926992 
L 120.084882 234.271364 
L 120.974346 231.955681 
L 121.863811 228.916372 
L 122.753275 228.928902 
L 123.64274 232.694973 
L 124.532204 233.841044 
L 125.421669 233.756764 
L 126.311133 234.059191 
L 128.090062 221.354196 
L 128.979527 219.002399 
L 129.868991 221.825513 
L 130.758456 222.528492 
L 131.64792 221.523538 
L 132.537385 221.070889 
L 133.426849 214.438306 
L 134.316314 205.527053 
L 135.205778 200.972457 
L 136.095243 201.965619 
L 137.874172 198.879121 
L 138.763636 197.710507 
L 139.653101 197.778412 
L 140.542565 193.243852 
L 141.43203 192.444963 
L 142.321494 196.714848 
L 143.210959 199.425683 
L 144.100423 200.556011 
L 144.989888 200.772181 
L 145.879352 196.171907 
L 146.768817 189.779209 
L 147.658281 188.296764 
L 148.547746 190.839851 
L 149.43721 191.38123 
L 150.326675 190.29387 
L 151.216139 189.549723 
L 152.105604 180.477043 
L 152.995068 172.777371 
L 153.884533 174.468387 
L 154.773998 179.277743 
M 156.552927 184.488447 
L 157.442391 184.977075 
L 158.331856 182.012621 
L 159.22132 177.503321 
L 160.110785 180.935853 
L 161.000249 189.615143 
L 161.889714 194.859238 
L 162.779178 195.760546 
L 163.668643 197.65248 
L 164.558107 195.451679 
L 165.447572 192.220978 
L 166.337036 193.547301 
L 167.226501 199.061179 
L 168.115965 202.471707 
L 169.00543 202.782994 
L 169.894894 203.618632 
L 170.784359 201.54696 
L 171.673823 198.264975 
L 172.563288 200.761092 
L 173.452752 207.225509 
L 174.342217 210.973422 
L 175.231681 211.540216 
L 176.121146 212.912975 
L 177.01061 210.986975 
L 177.900075 208.4472 
L 179.679004 222.683213 
L 180.568468 226.754762 
L 181.457933 228.514752 
L 182.347397 227.735767 
L 183.236862 225.442584 
L 184.126326 221.813741 
L 185.015791 223.122295 
L 185.905255 228.117212 
L 186.79472 230.662597 
L 187.684184 230.627184 
L 188.573649 231.12512 
L 189.463113 226.764559 
L 190.352578 221.672425 
L 191.242042 220.986729 
L 192.131507 224.809109 
L 193.020971 226.322453 
L 193.910436 225.749192 
L 194.7999 225.532152 
L 195.689365 221.266702 
L 196.578829 215.274853 
L 197.468294 214.249806 
L 198.357758 217.234903 
L 199.247223 218.539544 
L 200.136687 218.088731 
L 201.026152 217.954933 
L 202.805081 207.711216 
L 203.694545 205.745668 
L 204.58401 204.839805 
L 205.473474 205.730551 
L 206.362939 205.206637 
L 207.252403 204.970992 
L 208.141868 202.388239 
L 209.031333 198.694697 
L 209.920797 199.44193 
L 210.810262 203.407261 
L 211.699726 204.855332 
L 212.589191 204.356584 
L 213.478655 204.568815 
L 214.36812 199.466881 
L 215.257584 193.59384 
L 216.147049 194.013961 
L 217.036513 197.76243 
L 217.925978 200.200465 
L 218.815442 199.886142 
L 219.704907 200.234769 
L 221.483836 176.348143 
L 222.3733 170.933578 
L 223.262765 172.782503 
L 224.152229 170.812004 
L 225.041694 165.402297 
L 225.931158 162.483271 
L 226.820623 155.662788 
L 227.710087 146.448629 
L 228.599552 144.070837 
L 229.489016 147.058552 
L 230.378481 148.431957 
L 231.267945 150.564924 
L 232.15741 150.060933 
L 233.936339 134.1667 
L 234.825803 130.133303 
L 235.715268 131.489483 
L 236.604732 130.790029 
L 237.494197 124.661159 
L 238.383661 119.371005 
L 240.16259 102.573008 
L 241.052055 101.141418 
L 241.941519 104.789498 
L 242.830984 105.256374 
L 243.720448 103.961649 
L 244.609913 103.34744 
L 245.499377 97.538667 
L 246.388842 90.992972 
L 247.278306 98.915172 
L 248.167771 109.091355 
L 249.057235 115.997608 
L 249.9467 118.405859 
L 250.836164 122.74007 
L 251.725629 120.547507 
L 252.615093 115.717275 
L 253.504558 116.561315 
L 254.394022 123.717647 
L 255.283487 127.33933 
L 256.172951 126.958253 
L 257.062416 128.689657 
L 257.95188 111.368327 
L 258.841345 98.301458 
L 259.730809 94.331802 
L 260.620274 97.862135 
L 261.509738 98.601397 
L 262.399203 96.503994 
L 263.288667 95.806555 
L 264.178132 94.118373 
L 265.067597 89.86325 
L 265.957061 90.588778 
L 266.846526 96.600066 
L 267.73599 99.591089 
L 268.625455 99.417273 
L 269.514919 101.211072 
L 271.293848 87.975227 
L 272.183313 88.127186 
L 273.072777 93.023186 
L 273.962242 94.638559 
L 274.851706 94.342777 
L 275.741171 95.04929 
L 276.630635 89.645525 
L 277.5201 82.808889 
L 278.409564 84.891876 
L 279.299029 91.814582 
L 280.188493 95.815517 
L 281.077958 96.64837 
L 281.967422 99.149011 
L 282.856887 98.145039 
L 283.746351 94.506914 
L 285.52528 124.921481 
L 286.414745 135.978154 
L 287.304209 140.596647 
L 288.193674 145.995784 
L 289.083138 147.408396 
L 289.972603 147.16759 
L 290.862067 151.113128 
L 292.640996 165.918141 
L 293.530461 168.696136 
L 294.419925 172.377931 
L 295.30939 166.716821 
L 296.198854 159.541686 
L 297.088319 163.181566 
L 297.977783 171.361523 
L 298.867248 176.502099 
L 299.756712 178.13392 
L 300.646177 180.665847 
L 301.535641 178.478945 
L 302.425106 174.734368 
L 303.31457 178.343695 
L 304.204035 186.247012 
L 305.093499 191.575477 
L 305.982964 192.987631 
L 306.872428 195.23827 
L 307.761893 193.36465 
L 308.651357 189.5127 
M 310.430286 199.323644 
L 311.319751 202.177447 
L 312.209215 202.663927 
L 313.09868 203.960887 
L 313.988144 200.226412 
L 314.877609 195.148597 
L 315.767073 194.524601 
L 317.546002 202.184061 
L 318.435467 205.194558 
L 319.324932 205.660851 
L 321.103861 195.985198 
L 321.993325 201.281904 
L 322.88279 210.342007 
L 323.772254 215.427553 
L 324.661719 216.113601 
L 325.551183 217.504778 
L 326.440648 215.14927 
L 327.330112 211.884148 
L 328.219577 213.250114 
L 329.109041 217.832417 
L 329.998506 220.73769 
L 330.88797 220.839333 
L 331.777435 221.598778 
L 332.666899 218.733974 
L 333.556364 215.020783 
L 334.445828 216.164929 
L 335.335293 221.075838 
L 336.224757 219.772558 
L 337.114222 219.685229 
L 338.003686 220.22361 
L 339.782615 210.028013 
L 340.67208 211.052242 
L 341.561544 216.371294 
L 342.451009 219.150444 
L 344.229938 218.966196 
L 345.119402 216.609229 
L 346.008867 212.343499 
L 346.898331 214.702076 
L 347.787796 219.320491 
L 348.67726 221.36751 
L 349.566725 221.461899 
L 350.456189 221.964031 
L 351.345654 219.07518 
L 352.235118 215.230174 
L 353.124583 215.740255 
L 354.014047 218.863448 
L 354.903512 221.518568 
L 355.792976 222.792915 
L 356.682441 223.488776 
L 357.571905 220.97312 
L 358.46137 216.680076 
L 359.350834 217.405849 
L 360.240299 221.375593 
L 361.129763 223.227061 
L 362.019228 223.314718 
L 362.908692 223.998124 
L 363.798157 211.316338 
L 364.687621 200.248476 
L 365.577086 196.978404 
L 366.46655 198.286388 
L 367.356015 197.662998 
L 368.245479 187.283065 
L 369.134944 179.048115 
L 370.913873 145.416744 
L 371.803337 137.0408 
L 372.692802 139.714586 
L 373.582267 139.73578 
L 374.471731 138.458816 
L 375.361196 137.800894 
L 376.25066 132.698368 
L 377.140125 123.968113 
L 378.029589 120.654149 
L 378.919054 123.641286 
L 379.808518 124.594069 
L 380.697983 124.396354 
L 381.587447 123.952692 
L 382.476912 120.493632 
L 383.366376 114.973989 
L 384.255841 113.869332 
L 385.145305 117.673914 
L 386.03477 118.861374 
L 386.924234 117.950188 
L 387.813699 117.925395 
L 389.592628 101.933482 
L 390.482092 108.52733 
L 391.371557 117.294868 
L 392.261021 122.579826 
L 393.150486 116.557554 
L 394.03995 112.060786 
L 394.929415 114.133639 
L 395.818879 113.836546 
L 396.708344 124.065265 
L 397.597808 136.946486 
L 398.487273 143.460633 
L 398.487273 143.460633 
" clip-path="url(#pb186fd631d)" style="fill: none; stroke: #8c564b; stroke-width: 1.5; stroke-linecap: square"/>
   </g>
   <g id="line2d_24">
    <path d="M 73.832727 138.735997 
L 74.722192 137.624663 
L 75.611656 134.088857 
L 75.611656 134.088857 
" clip-path="url(#pb186fd631d)" style="fill: none; stroke: #e377c2; stroke-width: 1.5; stroke-linecap: square"/>
   </g>
   <g id="patch_3">
    <path d="M 57.6 307.584 
L 57.6 41.472 
" style="fill: none; stroke: #000000; stroke-width: 0.8; stroke-linejoin: miter; stroke-linecap: square"/>
   </g>
   <g id="patch_4">
    <path d="M 414.72 307.584 
L 414.72 41.472 
" style="fill: none; stroke: #000000; stroke-width: 0.8; stroke-linejoin: miter; stroke-linecap: square"/>
   </g>
   <g id="patch_5">
    <path d="M 57.6 307.584 
L 414.72 307.584 
" style="fill: none; stroke: #000000; stroke-width: 0.8; stroke-linejoin: miter; stroke-linecap: square"/>
   </g>
   <g id="patch_6">
    <path d="M 57.6 41.472 
L 414.72 41.472 
" style="fill: none; stroke: #000000; stroke-width: 0.8; stroke-linejoin: miter; stroke-linecap: square"/>
   </g>
   <g id="text_21">
    <!-- US Film Revenues Tracker: 2019-01-01 to 2025-01-03 -->
    <g transform="translate(75.751875 35.472)scale(0.12 -0.12)">
     <defs>
      <path id="DejaVuSans-55" d="M 556 4666 
L 1191 4666 
L 1191 1831 
Q 1191 1081 1462 751 
Q 1734 422 2344 422 
Q 2950 422 3222 751 
Q 3494 1081 3494 1831 
L 3494 4666 
L 4128 4666 
L 4128 1753 
Q 4128 841 3676 375 
Q 3225 -91 2344 -91 
Q 1459 -91 1007 375 
Q 556 841 556 1753 
L 556 4666 
z
" transform="scale(0.015625)"/>
      <path id="DejaVuSans-53" d="M 3425 4513 
L 3425 3897 
Q 3066 4069 2747 4153 
Q 2428 4238 2131 4238 
Q 1616 4238 1336 4038 
Q 1056 3838 1056 3469 
Q 1056 3159 1242 3001 
Q 1428 2844 1947 2747 
L 2328 2669 
Q 3034 2534 3370 2195 
Q 3706 1856 3706 1288 
Q 3706 609 3251 259 
Q 2797 -91 1919 -91 
Q 1588 -91 1214 -16 
Q 841 59 441 206 
L 441 856 
Q 825 641 1194 531 
Q 1563 422 1919 422 
Q 2459 422 2753 634 
Q 3047 847 3047 1241 
Q 3047 1584 2836 1778 
Q 2625 1972 2144 2069 
L 1759 2144 
Q 1053 2284 737 2584 
Q 422 2884 422 3419 
Q 422 4038 858 4394 
Q 1294 4750 2059 4750 
Q 2388 4750 2728 4690 
Q 3069 4631 3425 4513 
z
" transform="scale(0.015625)"/>
      <path id="DejaVuSans-46" d="M 628 4666 
L 3309 4666 
L 3309 4134 
L 1259 4134 
L 1259 2759 
L 3109 2759 
L 3109 2228 
L 1259 2228 
L 1259 0 
L 628 0 
L 628 4666 
z
" transform="scale(0.015625)"/>
      <path id="DejaVuSans-6d" d="M 3328 2828 
Q 3544 3216 3844 3400 
Q 4144 3584 4550 3584 
Q 5097 3584 5394 3201 
Q 5691 2819 5691 2113 
L 5691 0 
L 5113 0 
L 5113 2094 
Q 5113 2597 4934 2840 
Q 4756 3084 4391 3084 
Q 3944 3084 3684 2787 
Q 3425 2491 3425 1978 
L 3425 0 
L 2847 0 
L 2847 2094 
Q 2847 2600 2669 2842 
Q 2491 3084 2119 3084 
Q 1678 3084 1418 2786 
Q 1159 2488 1159 1978 
L 1159 0 
L 581 0 
L 581 3500 
L 1159 3500 
L 1159 2956 
Q 1356 3278 1631 3431 
Q 1906 3584 2284 3584 
Q 2666 3584 2933 3390 
Q 3200 3197 3328 2828 
z
" transform="scale(0.015625)"/>
      <path id="DejaVuSans-73" d="M 2834 3397 
L 2834 2853 
Q 2591 2978 2328 3040 
Q 2066 3103 1784 3103 
Q 1356 3103 1142 2972 
Q 928 2841 928 2578 
Q 928 2378 1081 2264 
Q 1234 2150 1697 2047 
L 1894 2003 
Q 2506 1872 2764 1633 
Q 3022 1394 3022 966 
Q 3022 478 2636 193 
Q 2250 -91 1575 -91 
Q 1294 -91 989 -36 
Q 684 19 347 128 
L 347 722 
Q 666 556 975 473 
Q 1284 391 1588 391 
Q 1994 391 2212 530 
Q 2431 669 2431 922 
Q 2431 1156 2273 1281 
Q 2116 1406 1581 1522 
L 1381 1569 
Q 847 1681 609 1914 
Q 372 2147 372 2553 
Q 372 3047 722 3315 
Q 1072 3584 1716 3584 
Q 2034 3584 2315 3537 
Q 2597 3491 2834 3397 
z
" transform="scale(0.015625)"/>
      <path id="DejaVuSans-54" d="M -19 4666 
L 3928 4666 
L 3928 4134 
L 2272 4134 
L 2272 0 
L 1638 0 
L 1638 4134 
L -19 4134 
L -19 4666 
z
" transform="scale(0.015625)"/>
      <path id="DejaVuSans-63" d="M 3122 3366 
L 3122 2828 
Q 2878 2963 2633 3030 
Q 2388 3097 2138 3097 
Q 1578 3097 1268 2742 
Q 959 2388 959 1747 
Q 959 1106 1268 751 
Q 1578 397 2138 397 
Q 2388 397 2633 464 
Q 2878 531 3122 666 
L 3122 134 
Q 2881 22 2623 -34 
Q 2366 -91 2075 -91 
Q 1284 -91 818 406 
Q 353 903 353 1747 
Q 353 2603 823 3093 
Q 1294 3584 2113 3584 
Q 2378 3584 2631 3529 
Q 2884 3475 3122 3366 
z
" transform="scale(0.015625)"/>
      <path id="DejaVuSans-6b" d="M 581 4863 
L 1159 4863 
L 1159 1991 
L 2875 3500 
L 3609 3500 
L 1753 1863 
L 3688 0 
L 2938 0 
L 1159 1709 
L 1159 0 
L 581 0 
L 581 4863 
z
" transform="scale(0.015625)"/>
      <path id="DejaVuSans-3a" d="M 750 794 
L 1409 794 
L 1409 0 
L 750 0 
L 750 794 
z
M 750 3309 
L 1409 3309 
L 1409 2516 
L 750 2516 
L 750 3309 
z
" transform="scale(0.015625)"/>
      <path id="DejaVuSans-39" d="M 703 97 
L 703 672 
Q 941 559 1184 500 
Q 1428 441 1663 441 
Q 2288 441 2617 861 
Q 2947 1281 2994 2138 
Q 2813 1869 2534 1725 
Q 2256 1581 1919 1581 
Q 1219 1581 811 2004 
Q 403 2428 403 3163 
Q 403 3881 828 4315 
Q 1253 4750 1959 4750 
Q 2769 4750 3195 4129 
Q 3622 3509 3622 2328 
Q 3622 1225 3098 567 
Q 2575 -91 1691 -91 
Q 1453 -91 1209 -44 
Q 966 3 703 97 
z
M 1959 2075 
Q 2384 2075 2632 2365 
Q 2881 2656 2881 3163 
Q 2881 3666 2632 3958 
Q 2384 4250 1959 4250 
Q 1534 4250 1286 3958 
Q 1038 3666 1038 3163 
Q 1038 2656 1286 2365 
Q 1534 2075 1959 2075 
z
" transform="scale(0.015625)"/>
      <path id="DejaVuSans-2d" d="M 313 2009 
L 1997 2009 
L 1997 1497 
L 313 1497 
L 313 2009 
z
" transform="scale(0.015625)"/>
      <path id="DejaVuSans-74" d="M 1172 4494 
L 1172 3500 
L 2356 3500 
L 2356 3053 
L 1172 3053 
L 1172 1153 
Q 1172 725 1289 603 
Q 1406 481 1766 481 
L 2356 481 
L 2356 0 
L 1766 0 
Q 1100 0 847 248 
Q 594 497 594 1153 
L 594 3053 
L 172 3053 
L 172 3500 
L 594 3500 
L 594 4494 
L 1172 4494 
z
" transform="scale(0.015625)"/>
     </defs>
     <use xlink:href="#DejaVuSans-55"/>
     <use xlink:href="#DejaVuSans-53" x="73.193359"/>
     <use xlink:href="#DejaVuSans-20" x="136.669922"/>
     <use xlink:href="#DejaVuSans-46" x="168.457031"/>
     <use xlink:href="#DejaVuSans-69" x="218.726562"/>
     <use xlink:href="#DejaVuSans-6c" x="246.509766"/>
     <use xlink:href="#DejaVuSans-6d" x="274.292969"/>
     <use xlink:href="#DejaVuSans-20" x="371.705078"/>
     <use xlink:href="#DejaVuSans-52" x="403.492188"/>
     <use xlink:href="#DejaVuSans-65" x="468.474609"/>
     <use xlink:href="#DejaVuSans-76" x="529.998047"/>
     <use xlink:href="#DejaVuSans-65" x="589.177734"/>
     <use xlink:href="#DejaVuSans-6e" x="650.701172"/>
     <use xlink:href="#DejaVuSans-75" x="714.080078"/>
     <use xlink:href="#DejaVuSans-65" x="777.458984"/>
     <use xlink:href="#DejaVuSans-73" x="838.982422"/>
     <use xlink:href="#DejaVuSans-20" x="891.082031"/>
     <use xlink:href="#DejaVuSans-54" x="922.869141"/>
     <use xlink:href="#DejaVuSans-72" x="969.203125"/>
     <use xlink:href="#DejaVuSans-61" x="1010.316406"/>
     <use xlink:href="#DejaVuSans-63" x="1071.595703"/>
     <use xlink:href="#DejaVuSans-6b" x="1126.576172"/>
     <use xlink:href="#DejaVuSans-65" x="1180.861328"/>
     <use xlink:href="#DejaVuSans-72" x="1242.384766"/>
     <use xlink:href="#DejaVuSans-3a" x="1281.748047"/>
     <use xlink:href="#DejaVuSans-20" x="1315.439453"/>
     <use xlink:href="#DejaVuSans-32" x="1347.226562"/>
     <use xlink:href="#DejaVuSans-30" x="1410.849609"/>
     <use xlink:href="#DejaVuSans-31" x="1474.472656"/>
     <use xlink:href="#DejaVuSans-39" x="1538.095703"/>
     <use xlink:href="#DejaVuSans-2d" x="1601.71875"/>
     <use xlink:href="#DejaVuSans-30" x="1637.802734"/>
     <use xlink:href="#DejaVuSans-31" x="1701.425781"/>
     <use xlink:href="#DejaVuSans-2d" x="1765.048828"/>
     <use xlink:href="#DejaVuSans-30" x="1801.132812"/>
     <use xlink:href="#DejaVuSans-31" x="1864.755859"/>
     <use xlink:href="#DejaVuSans-20" x="1928.378906"/>
     <use xlink:href="#DejaVuSans-74" x="1960.166016"/>
     <use xlink:href="#DejaVuSans-6f" x="1999.375"/>
     <use xlink:href="#DejaVuSans-20" x="2060.556641"/>
     <use xlink:href="#DejaVuSans-32" x="2092.34375"/>
     <use xlink:href="#DejaVuSans-30" x="2155.966797"/>
     <use xlink:href="#DejaVuSans-32" x="2219.589844"/>
     <use xlink:href="#DejaVuSans-35" x="2283.212891"/>
     <use xlink:href="#DejaVuSans-2d" x="2346.835938"/>
     <use xlink:href="#DejaVuSans-30" x="2382.919922"/>
     <use xlink:href="#DejaVuSans-31" x="2446.542969"/>
     <use xlink:href="#DejaVuSans-2d" x="2510.166016"/>
     <use xlink:href="#DejaVuSans-30" x="2546.25"/>
     <use xlink:href="#DejaVuSans-33" x="2609.873047"/>
    </g>
   </g>
   <g id="legend_1">
    <g id="patch_7">
     <path d="M 350.27 152.218875 
L 407.72 152.218875 
Q 409.72 152.218875 409.72 150.218875 
L 409.72 48.472 
Q 409.72 46.472 407.72 46.472 
L 350.27 46.472 
Q 348.27 46.472 348.27 48.472 
L 348.27 150.218875 
Q 348.27 152.218875 350.27 152.218875 
z
" style="fill: #ffffff; opacity: 0.8; stroke: #cccccc; stroke-linejoin: miter"/>
    </g>
    <g id="line2d_25">
     <path d="M 352.27 54.570438 
L 362.27 54.570438 
L 372.27 54.570438 
" style="fill: none; stroke: #1f77b4; stroke-width: 1.5; stroke-linecap: square"/>
    </g>
    <g id="text_22">
     <!-- 2019 -->
     <g transform="translate(380.27 58.070438)scale(0.1 -0.1)">
      <use xlink:href="#DejaVuSans-32"/>
      <use xlink:href="#DejaVuSans-30" x="63.623047"/>
      <use xlink:href="#DejaVuSans-31" x="127.246094"/>
      <use xlink:href="#DejaVuSans-39" x="190.869141"/>
     </g>
    </g>
    <g id="line2d_26">
     <path d="M 352.27 69.248563 
L 362.27 69.248563 
L 372.27 69.248563 
" style="fill: none; stroke: #ff7f0e; stroke-width: 1.5; stroke-linecap: square"/>
    </g>
    <g id="text_23">
     <!-- 2020 -->
     <g transform="translate(380.27 72.748563)scale(0.1 -0.1)">
      <use xlink:href="#DejaVuSans-32"/>
      <use xlink:href="#DejaVuSans-30" x="63.623047"/>
      <use xlink:href="#DejaVuSans-32" x="127.246094"/>
      <use xlink:href="#DejaVuSans-30" x="190.869141"/>
     </g>
    </g>
    <g id="line2d_27">
     <path d="M 352.27 83.926688 
L 362.27 83.926688 
L 372.27 83.926688 
" style="fill: none; stroke: #2ca02c; stroke-width: 1.5; stroke-linecap: square"/>
    </g>
    <g id="text_24">
     <!-- 2021 -->
     <g transform="translate(380.27 87.426688)scale(0.1 -0.1)">
      <use xlink:href="#DejaVuSans-32"/>
      <use xlink:href="#DejaVuSans-30" x="63.623047"/>
      <use xlink:href="#DejaVuSans-32" x="127.246094"/>
      <use xlink:href="#DejaVuSans-31" x="190.869141"/>
     </g>
    </g>
    <g id="line2d_28">
     <path d="M 352.27 98.604813 
L 362.27 98.604813 
L 372.27 98.604813 
" style="fill: none; stroke: #d62728; stroke-width: 1.5; stroke-linecap: square"/>
    </g>
    <g id="text_25">
     <!-- 2022 -->
     <g transform="translate(380.27 102.104813)scale(0.1 -0.1)">
      <use xlink:href="#DejaVuSans-32"/>
      <use xlink:href="#DejaVuSans-30" x="63.623047"/>
      <use xlink:href="#DejaVuSans-32" x="127.246094"/>
      <use xlink:href="#DejaVuSans-32" x="190.869141"/>
     </g>
    </g>
    <g id="line2d_29">
     <path d="M 352.27 113.282938 
L 362.27 113.282938 
L 372.27 113.282938 
" style="fill: none; stroke: #9467bd; stroke-width: 1.5; stroke-linecap: square"/>
    </g>
    <g id="text_26">
     <!-- 2023 -->
     <g transform="translate(380.27 116.782938)scale(0.1 -0.1)">
      <use xlink:href="#DejaVuSans-32"/>
      <use xlink:href="#DejaVuSans-30" x="63.623047"/>
      <use xlink:href="#DejaVuSans-32" x="127.246094"/>
      <use xlink:href="#DejaVuSans-33" x="190.869141"/>
     </g>
    </g>
    <g id="line2d_30">
     <path d="M 352.27 127.961063 
L 362.27 127.961063 
L 372.27 127.961063 
" style="fill: none; stroke: #8c564b; stroke-width: 1.5; stroke-linecap: square"/>
    </g>
    <g id="text_27">
     <!-- 2024 -->
     <g transform="translate(380.27 131.461063)scale(0.1 -0.1)">
      <defs>
       <path id="DejaVuSans-34" d="M 2419 4116 
L 825 1625 
L 2419 1625 
L 2419 4116 
z
M 2253 4666 
L 3047 4666 
L 3047 1625 
L 3713 1625 
L 3713 1100 
L 3047 1100 
L 3047 0 
L 2419 0 
L 2419 1100 
L 313 1100 
L 313 1709 
L 2253 4666 
z
" transform="scale(0.015625)"/>
      </defs>
      <use xlink:href="#DejaVuSans-32"/>
      <use xlink:href="#DejaVuSans-30" x="63.623047"/>
      <use xlink:href="#DejaVuSans-32" x="127.246094"/>
      <use xlink:href="#DejaVuSans-34" x="190.869141"/>
     </g>
    </g>
    <g id="line2d_31">
     <path d="M 352.27 142.639188 
L 362.27 142.639188 
L 372.27 142.639188 
" style="fill: none; stroke: #e377c2; stroke-width: 1.5; stroke-linecap: square"/>
    </g>
    <g id="text_28">
     <!-- 2025 -->
     <g transform="translate(380.27 146.139188)scale(0.1 -0.1)">
      <use xlink:href="#DejaVuSans-32"/>
      <use xlink:href="#DejaVuSans-30" x="63.623047"/>
      <use xlink:href="#DejaVuSans-32" x="127.246094"/>
      <use xlink:href="#DejaVuSans-35" x="190.869141"/>
     </g>
    </g>
   </g>
  </g>
 </g>
 <defs>
  <clipPath id="pb186fd631d">
   <rect x="57.6" y="41.472" width="357.12" height="266.112"/>
  </clipPath>
 </defs>
</svg>
