<?xml version="1.0" encoding="utf-8" standalone="no"?>
<!DOCTYPE svg PUBLIC "-//W3C//DTD SVG 1.1//EN"
  "http://www.w3.org/Graphics/SVG/1.1/DTD/svg11.dtd">
<!-- Created with matplotlib (https://matplotlib.org/) -->
<svg height="345.6pt" version="1.1" viewBox="0 0 460.8 345.6" width="460.8pt" xmlns="http://www.w3.org/2000/svg" xmlns:xlink="http://www.w3.org/1999/xlink">
 <metadata>
  <rdf:RDF xmlns:cc="http://creativecommons.org/ns#" xmlns:dc="http://purl.org/dc/elements/1.1/" xmlns:rdf="http://www.w3.org/1999/02/22-rdf-syntax-ns#">
   <cc:Work>
    <dc:type rdf:resource="http://purl.org/dc/dcmitype/StillImage"/>
    <dc:date>2021-03-17T08:56:32.007809</dc:date>
    <dc:format>image/svg+xml</dc:format>
    <dc:creator>
     <cc:Agent>
      <dc:title>Matplotlib v3.3.4, https://matplotlib.org/</dc:title>
     </cc:Agent>
    </dc:creator>
   </cc:Work>
  </rdf:RDF>
 </metadata>
 <defs>
  <style type="text/css">*{stroke-linecap:butt;stroke-linejoin:round;}</style>
 </defs>
 <g id="figure_1">
  <g id="patch_1">
   <path d="M 0 345.6 
L 460.8 345.6 
L 460.8 0 
L 0 0 
z
" style="fill:#ffffff;"/>
  </g>
  <g id="axes_1">
   <g id="patch_2">
    <path d="M 57.6 307.584 
L 414.72 307.584 
L 414.72 41.472 
L 57.6 41.472 
z
" style="fill:#ffffff;"/>
   </g>
   <g id="matplotlib.axis_1">
    <g id="xtick_1">
     <g id="line2d_1">
      <defs>
       <path d="M 0 0 
L 0 3.5 
" id="m216653c29d" style="stroke:#000000;stroke-width:0.8;"/>
      </defs>
      <g>
       <use style="stroke:#000000;stroke-width:0.8;" x="72.943263" xlink:href="#m216653c29d" y="307.584"/>
      </g>
     </g>
     <g id="text_1">
      <!-- 0 -->
      <g transform="translate(69.762013 322.182437)scale(0.1 -0.1)">
       <defs>
        <path d="M 31.78125 66.40625 
Q 24.171875 66.40625 20.328125 58.90625 
Q 16.5 51.421875 16.5 36.375 
Q 16.5 21.390625 20.328125 13.890625 
Q 24.171875 6.390625 31.78125 6.390625 
Q 39.453125 6.390625 43.28125 13.890625 
Q 47.125 21.390625 47.125 36.375 
Q 47.125 51.421875 43.28125 58.90625 
Q 39.453125 66.40625 31.78125 66.40625 
z
M 31.78125 74.21875 
Q 44.046875 74.21875 50.515625 64.515625 
Q 56.984375 54.828125 56.984375 36.375 
Q 56.984375 17.96875 50.515625 8.265625 
Q 44.046875 -1.421875 31.78125 -1.421875 
Q 19.53125 -1.421875 13.0625 8.265625 
Q 6.59375 17.96875 6.59375 36.375 
Q 6.59375 54.828125 13.0625 64.515625 
Q 19.53125 74.21875 31.78125 74.21875 
z
" id="DejaVuSans-48"/>
       </defs>
       <use xlink:href="#DejaVuSans-48"/>
      </g>
     </g>
    </g>
    <g id="xtick_2">
     <g id="line2d_2">
      <g>
       <use style="stroke:#000000;stroke-width:0.8;" x="117.416488" xlink:href="#m216653c29d" y="307.584"/>
      </g>
     </g>
     <g id="text_2">
      <!-- 50 -->
      <g transform="translate(111.053988 322.182437)scale(0.1 -0.1)">
       <defs>
        <path d="M 10.796875 72.90625 
L 49.515625 72.90625 
L 49.515625 64.59375 
L 19.828125 64.59375 
L 19.828125 46.734375 
Q 21.96875 47.46875 24.109375 47.828125 
Q 26.265625 48.1875 28.421875 48.1875 
Q 40.625 48.1875 47.75 41.5 
Q 54.890625 34.8125 54.890625 23.390625 
Q 54.890625 11.625 47.5625 5.09375 
Q 40.234375 -1.421875 26.90625 -1.421875 
Q 22.3125 -1.421875 17.546875 -0.640625 
Q 12.796875 0.140625 7.71875 1.703125 
L 7.71875 11.625 
Q 12.109375 9.234375 16.796875 8.0625 
Q 21.484375 6.890625 26.703125 6.890625 
Q 35.15625 6.890625 40.078125 11.328125 
Q 45.015625 15.765625 45.015625 23.390625 
Q 45.015625 31 40.078125 35.4375 
Q 35.15625 39.890625 26.703125 39.890625 
Q 22.75 39.890625 18.8125 39.015625 
Q 14.890625 38.140625 10.796875 36.28125 
z
" id="DejaVuSans-53"/>
       </defs>
       <use xlink:href="#DejaVuSans-53"/>
       <use x="63.623047" xlink:href="#DejaVuSans-48"/>
      </g>
     </g>
    </g>
    <g id="xtick_3">
     <g id="line2d_3">
      <g>
       <use style="stroke:#000000;stroke-width:0.8;" x="161.889714" xlink:href="#m216653c29d" y="307.584"/>
      </g>
     </g>
     <g id="text_3">
      <!-- 100 -->
      <g transform="translate(152.345964 322.182437)scale(0.1 -0.1)">
       <defs>
        <path d="M 12.40625 8.296875 
L 28.515625 8.296875 
L 28.515625 63.921875 
L 10.984375 60.40625 
L 10.984375 69.390625 
L 28.421875 72.90625 
L 38.28125 72.90625 
L 38.28125 8.296875 
L 54.390625 8.296875 
L 54.390625 0 
L 12.40625 0 
z
" id="DejaVuSans-49"/>
       </defs>
       <use xlink:href="#DejaVuSans-49"/>
       <use x="63.623047" xlink:href="#DejaVuSans-48"/>
       <use x="127.246094" xlink:href="#DejaVuSans-48"/>
      </g>
     </g>
    </g>
    <g id="xtick_4">
     <g id="line2d_4">
      <g>
       <use style="stroke:#000000;stroke-width:0.8;" x="206.362939" xlink:href="#m216653c29d" y="307.584"/>
      </g>
     </g>
     <g id="text_4">
      <!-- 150 -->
      <g transform="translate(196.819189 322.182437)scale(0.1 -0.1)">
       <use xlink:href="#DejaVuSans-49"/>
       <use x="63.623047" xlink:href="#DejaVuSans-53"/>
       <use x="127.246094" xlink:href="#DejaVuSans-48"/>
      </g>
     </g>
    </g>
    <g id="xtick_5">
     <g id="line2d_5">
      <g>
       <use style="stroke:#000000;stroke-width:0.8;" x="250.836164" xlink:href="#m216653c29d" y="307.584"/>
      </g>
     </g>
     <g id="text_5">
      <!-- 200 -->
      <g transform="translate(241.292414 322.182437)scale(0.1 -0.1)">
       <defs>
        <path d="M 19.1875 8.296875 
L 53.609375 8.296875 
L 53.609375 0 
L 7.328125 0 
L 7.328125 8.296875 
Q 12.9375 14.109375 22.625 23.890625 
Q 32.328125 33.6875 34.8125 36.53125 
Q 39.546875 41.84375 41.421875 45.53125 
Q 43.3125 49.21875 43.3125 52.78125 
Q 43.3125 58.59375 39.234375 62.25 
Q 35.15625 65.921875 28.609375 65.921875 
Q 23.96875 65.921875 18.8125 64.3125 
Q 13.671875 62.703125 7.8125 59.421875 
L 7.8125 69.390625 
Q 13.765625 71.78125 18.9375 73 
Q 24.125 74.21875 28.421875 74.21875 
Q 39.75 74.21875 46.484375 68.546875 
Q 53.21875 62.890625 53.21875 53.421875 
Q 53.21875 48.921875 51.53125 44.890625 
Q 49.859375 40.875 45.40625 35.40625 
Q 44.1875 33.984375 37.640625 27.21875 
Q 31.109375 20.453125 19.1875 8.296875 
z
" id="DejaVuSans-50"/>
       </defs>
       <use xlink:href="#DejaVuSans-50"/>
       <use x="63.623047" xlink:href="#DejaVuSans-48"/>
       <use x="127.246094" xlink:href="#DejaVuSans-48"/>
      </g>
     </g>
    </g>
    <g id="xtick_6">
     <g id="line2d_6">
      <g>
       <use style="stroke:#000000;stroke-width:0.8;" x="295.30939" xlink:href="#m216653c29d" y="307.584"/>
      </g>
     </g>
     <g id="text_6">
      <!-- 250 -->
      <g transform="translate(285.76564 322.182437)scale(0.1 -0.1)">
       <use xlink:href="#DejaVuSans-50"/>
       <use x="63.623047" xlink:href="#DejaVuSans-53"/>
       <use x="127.246094" xlink:href="#DejaVuSans-48"/>
      </g>
     </g>
    </g>
    <g id="xtick_7">
     <g id="line2d_7">
      <g>
       <use style="stroke:#000000;stroke-width:0.8;" x="339.782615" xlink:href="#m216653c29d" y="307.584"/>
      </g>
     </g>
     <g id="text_7">
      <!-- 300 -->
      <g transform="translate(330.238865 322.182437)scale(0.1 -0.1)">
       <defs>
        <path d="M 40.578125 39.3125 
Q 47.65625 37.796875 51.625 33 
Q 55.609375 28.21875 55.609375 21.1875 
Q 55.609375 10.40625 48.1875 4.484375 
Q 40.765625 -1.421875 27.09375 -1.421875 
Q 22.515625 -1.421875 17.65625 -0.515625 
Q 12.796875 0.390625 7.625 2.203125 
L 7.625 11.71875 
Q 11.71875 9.328125 16.59375 8.109375 
Q 21.484375 6.890625 26.8125 6.890625 
Q 36.078125 6.890625 40.9375 10.546875 
Q 45.796875 14.203125 45.796875 21.1875 
Q 45.796875 27.640625 41.28125 31.265625 
Q 36.765625 34.90625 28.71875 34.90625 
L 20.21875 34.90625 
L 20.21875 43.015625 
L 29.109375 43.015625 
Q 36.375 43.015625 40.234375 45.921875 
Q 44.09375 48.828125 44.09375 54.296875 
Q 44.09375 59.90625 40.109375 62.90625 
Q 36.140625 65.921875 28.71875 65.921875 
Q 24.65625 65.921875 20.015625 65.03125 
Q 15.375 64.15625 9.8125 62.3125 
L 9.8125 71.09375 
Q 15.4375 72.65625 20.34375 73.4375 
Q 25.25 74.21875 29.59375 74.21875 
Q 40.828125 74.21875 47.359375 69.109375 
Q 53.90625 64.015625 53.90625 55.328125 
Q 53.90625 49.265625 50.4375 45.09375 
Q 46.96875 40.921875 40.578125 39.3125 
z
" id="DejaVuSans-51"/>
       </defs>
       <use xlink:href="#DejaVuSans-51"/>
       <use x="63.623047" xlink:href="#DejaVuSans-48"/>
       <use x="127.246094" xlink:href="#DejaVuSans-48"/>
      </g>
     </g>
    </g>
    <g id="xtick_8">
     <g id="line2d_8">
      <g>
       <use style="stroke:#000000;stroke-width:0.8;" x="384.255841" xlink:href="#m216653c29d" y="307.584"/>
      </g>
     </g>
     <g id="text_8">
      <!-- 350 -->
      <g transform="translate(374.712091 322.182437)scale(0.1 -0.1)">
       <use xlink:href="#DejaVuSans-51"/>
       <use x="63.623047" xlink:href="#DejaVuSans-53"/>
       <use x="127.246094" xlink:href="#DejaVuSans-48"/>
      </g>
     </g>
    </g>
    <g id="text_9">
     <!-- Day of year -->
     <g transform="translate(207.133437 335.860562)scale(0.1 -0.1)">
      <defs>
       <path d="M 19.671875 64.796875 
L 19.671875 8.109375 
L 31.59375 8.109375 
Q 46.6875 8.109375 53.6875 14.9375 
Q 60.6875 21.78125 60.6875 36.53125 
Q 60.6875 51.171875 53.6875 57.984375 
Q 46.6875 64.796875 31.59375 64.796875 
z
M 9.8125 72.90625 
L 30.078125 72.90625 
Q 51.265625 72.90625 61.171875 64.09375 
Q 71.09375 55.28125 71.09375 36.53125 
Q 71.09375 17.671875 61.125 8.828125 
Q 51.171875 0 30.078125 0 
L 9.8125 0 
z
" id="DejaVuSans-68"/>
       <path d="M 34.28125 27.484375 
Q 23.390625 27.484375 19.1875 25 
Q 14.984375 22.515625 14.984375 16.5 
Q 14.984375 11.71875 18.140625 8.90625 
Q 21.296875 6.109375 26.703125 6.109375 
Q 34.1875 6.109375 38.703125 11.40625 
Q 43.21875 16.703125 43.21875 25.484375 
L 43.21875 27.484375 
z
M 52.203125 31.203125 
L 52.203125 0 
L 43.21875 0 
L 43.21875 8.296875 
Q 40.140625 3.328125 35.546875 0.953125 
Q 30.953125 -1.421875 24.3125 -1.421875 
Q 15.921875 -1.421875 10.953125 3.296875 
Q 6 8.015625 6 15.921875 
Q 6 25.140625 12.171875 29.828125 
Q 18.359375 34.515625 30.609375 34.515625 
L 43.21875 34.515625 
L 43.21875 35.40625 
Q 43.21875 41.609375 39.140625 45 
Q 35.0625 48.390625 27.6875 48.390625 
Q 23 48.390625 18.546875 47.265625 
Q 14.109375 46.140625 10.015625 43.890625 
L 10.015625 52.203125 
Q 14.9375 54.109375 19.578125 55.046875 
Q 24.21875 56 28.609375 56 
Q 40.484375 56 46.34375 49.84375 
Q 52.203125 43.703125 52.203125 31.203125 
z
" id="DejaVuSans-97"/>
       <path d="M 32.171875 -5.078125 
Q 28.375 -14.84375 24.75 -17.8125 
Q 21.140625 -20.796875 15.09375 -20.796875 
L 7.90625 -20.796875 
L 7.90625 -13.28125 
L 13.1875 -13.28125 
Q 16.890625 -13.28125 18.9375 -11.515625 
Q 21 -9.765625 23.484375 -3.21875 
L 25.09375 0.875 
L 2.984375 54.6875 
L 12.5 54.6875 
L 29.59375 11.921875 
L 46.6875 54.6875 
L 56.203125 54.6875 
z
" id="DejaVuSans-121"/>
       <path id="DejaVuSans-32"/>
       <path d="M 30.609375 48.390625 
Q 23.390625 48.390625 19.1875 42.75 
Q 14.984375 37.109375 14.984375 27.296875 
Q 14.984375 17.484375 19.15625 11.84375 
Q 23.34375 6.203125 30.609375 6.203125 
Q 37.796875 6.203125 41.984375 11.859375 
Q 46.1875 17.53125 46.1875 27.296875 
Q 46.1875 37.015625 41.984375 42.703125 
Q 37.796875 48.390625 30.609375 48.390625 
z
M 30.609375 56 
Q 42.328125 56 49.015625 48.375 
Q 55.71875 40.765625 55.71875 27.296875 
Q 55.71875 13.875 49.015625 6.21875 
Q 42.328125 -1.421875 30.609375 -1.421875 
Q 18.84375 -1.421875 12.171875 6.21875 
Q 5.515625 13.875 5.515625 27.296875 
Q 5.515625 40.765625 12.171875 48.375 
Q 18.84375 56 30.609375 56 
z
" id="DejaVuSans-111"/>
       <path d="M 37.109375 75.984375 
L 37.109375 68.5 
L 28.515625 68.5 
Q 23.6875 68.5 21.796875 66.546875 
Q 19.921875 64.59375 19.921875 59.515625 
L 19.921875 54.6875 
L 34.71875 54.6875 
L 34.71875 47.703125 
L 19.921875 47.703125 
L 19.921875 0 
L 10.890625 0 
L 10.890625 47.703125 
L 2.296875 47.703125 
L 2.296875 54.6875 
L 10.890625 54.6875 
L 10.890625 58.5 
Q 10.890625 67.625 15.140625 71.796875 
Q 19.390625 75.984375 28.609375 75.984375 
z
" id="DejaVuSans-102"/>
       <path d="M 56.203125 29.59375 
L 56.203125 25.203125 
L 14.890625 25.203125 
Q 15.484375 15.921875 20.484375 11.0625 
Q 25.484375 6.203125 34.421875 6.203125 
Q 39.59375 6.203125 44.453125 7.46875 
Q 49.3125 8.734375 54.109375 11.28125 
L 54.109375 2.78125 
Q 49.265625 0.734375 44.1875 -0.34375 
Q 39.109375 -1.421875 33.890625 -1.421875 
Q 20.796875 -1.421875 13.15625 6.1875 
Q 5.515625 13.8125 5.515625 26.8125 
Q 5.515625 40.234375 12.765625 48.109375 
Q 20.015625 56 32.328125 56 
Q 43.359375 56 49.78125 48.890625 
Q 56.203125 41.796875 56.203125 29.59375 
z
M 47.21875 32.234375 
Q 47.125 39.59375 43.09375 43.984375 
Q 39.0625 48.390625 32.421875 48.390625 
Q 24.90625 48.390625 20.390625 44.140625 
Q 15.875 39.890625 15.1875 32.171875 
z
" id="DejaVuSans-101"/>
       <path d="M 41.109375 46.296875 
Q 39.59375 47.171875 37.8125 47.578125 
Q 36.03125 48 33.890625 48 
Q 26.265625 48 22.1875 43.046875 
Q 18.109375 38.09375 18.109375 28.8125 
L 18.109375 0 
L 9.078125 0 
L 9.078125 54.6875 
L 18.109375 54.6875 
L 18.109375 46.1875 
Q 20.953125 51.171875 25.484375 53.578125 
Q 30.03125 56 36.53125 56 
Q 37.453125 56 38.578125 55.875 
Q 39.703125 55.765625 41.0625 55.515625 
z
" id="DejaVuSans-114"/>
      </defs>
      <use xlink:href="#DejaVuSans-68"/>
      <use x="77.001953" xlink:href="#DejaVuSans-97"/>
      <use x="138.28125" xlink:href="#DejaVuSans-121"/>
      <use x="197.460938" xlink:href="#DejaVuSans-32"/>
      <use x="229.248047" xlink:href="#DejaVuSans-111"/>
      <use x="290.429688" xlink:href="#DejaVuSans-102"/>
      <use x="325.634766" xlink:href="#DejaVuSans-32"/>
      <use x="357.421875" xlink:href="#DejaVuSans-121"/>
      <use x="416.601562" xlink:href="#DejaVuSans-101"/>
      <use x="478.125" xlink:href="#DejaVuSans-97"/>
      <use x="539.404297" xlink:href="#DejaVuSans-114"/>
     </g>
    </g>
   </g>
   <g id="matplotlib.axis_2">
    <g id="ytick_1">
     <g id="line2d_9">
      <defs>
       <path d="M 0 0 
L -3.5 0 
" id="m3c8ef5ffde" style="stroke:#000000;stroke-width:0.8;"/>
      </defs>
      <g>
       <use style="stroke:#000000;stroke-width:0.8;" x="57.6" xlink:href="#m3c8ef5ffde" y="295.490019"/>
      </g>
     </g>
     <g id="text_10">
      <!-- 0.00 -->
      <g transform="translate(28.334375 299.289238)scale(0.1 -0.1)">
       <defs>
        <path d="M 10.6875 12.40625 
L 21 12.40625 
L 21 0 
L 10.6875 0 
z
" id="DejaVuSans-46"/>
       </defs>
       <use xlink:href="#DejaVuSans-48"/>
       <use x="63.623047" xlink:href="#DejaVuSans-46"/>
       <use x="95.410156" xlink:href="#DejaVuSans-48"/>
       <use x="159.033203" xlink:href="#DejaVuSans-48"/>
      </g>
     </g>
    </g>
    <g id="ytick_2">
     <g id="line2d_10">
      <g>
       <use style="stroke:#000000;stroke-width:0.8;" x="57.6" xlink:href="#m3c8ef5ffde" y="264.104094"/>
      </g>
     </g>
     <g id="text_11">
      <!-- 0.25 -->
      <g transform="translate(28.334375 267.903313)scale(0.1 -0.1)">
       <use xlink:href="#DejaVuSans-48"/>
       <use x="63.623047" xlink:href="#DejaVuSans-46"/>
       <use x="95.410156" xlink:href="#DejaVuSans-50"/>
       <use x="159.033203" xlink:href="#DejaVuSans-53"/>
      </g>
     </g>
    </g>
    <g id="ytick_3">
     <g id="line2d_11">
      <g>
       <use style="stroke:#000000;stroke-width:0.8;" x="57.6" xlink:href="#m3c8ef5ffde" y="232.71817"/>
      </g>
     </g>
     <g id="text_12">
      <!-- 0.50 -->
      <g transform="translate(28.334375 236.517389)scale(0.1 -0.1)">
       <use xlink:href="#DejaVuSans-48"/>
       <use x="63.623047" xlink:href="#DejaVuSans-46"/>
       <use x="95.410156" xlink:href="#DejaVuSans-53"/>
       <use x="159.033203" xlink:href="#DejaVuSans-48"/>
      </g>
     </g>
    </g>
    <g id="ytick_4">
     <g id="line2d_12">
      <g>
       <use style="stroke:#000000;stroke-width:0.8;" x="57.6" xlink:href="#m3c8ef5ffde" y="201.332245"/>
      </g>
     </g>
     <g id="text_13">
      <!-- 0.75 -->
      <g transform="translate(28.334375 205.131464)scale(0.1 -0.1)">
       <defs>
        <path d="M 8.203125 72.90625 
L 55.078125 72.90625 
L 55.078125 68.703125 
L 28.609375 0 
L 18.3125 0 
L 43.21875 64.59375 
L 8.203125 64.59375 
z
" id="DejaVuSans-55"/>
       </defs>
       <use xlink:href="#DejaVuSans-48"/>
       <use x="63.623047" xlink:href="#DejaVuSans-46"/>
       <use x="95.410156" xlink:href="#DejaVuSans-55"/>
       <use x="159.033203" xlink:href="#DejaVuSans-53"/>
      </g>
     </g>
    </g>
    <g id="ytick_5">
     <g id="line2d_13">
      <g>
       <use style="stroke:#000000;stroke-width:0.8;" x="57.6" xlink:href="#m3c8ef5ffde" y="169.946321"/>
      </g>
     </g>
     <g id="text_14">
      <!-- 1.00 -->
      <g transform="translate(28.334375 173.74554)scale(0.1 -0.1)">
       <use xlink:href="#DejaVuSans-49"/>
       <use x="63.623047" xlink:href="#DejaVuSans-46"/>
       <use x="95.410156" xlink:href="#DejaVuSans-48"/>
       <use x="159.033203" xlink:href="#DejaVuSans-48"/>
      </g>
     </g>
    </g>
    <g id="ytick_6">
     <g id="line2d_14">
      <g>
       <use style="stroke:#000000;stroke-width:0.8;" x="57.6" xlink:href="#m3c8ef5ffde" y="138.560396"/>
      </g>
     </g>
     <g id="text_15">
      <!-- 1.25 -->
      <g transform="translate(28.334375 142.359615)scale(0.1 -0.1)">
       <use xlink:href="#DejaVuSans-49"/>
       <use x="63.623047" xlink:href="#DejaVuSans-46"/>
       <use x="95.410156" xlink:href="#DejaVuSans-50"/>
       <use x="159.033203" xlink:href="#DejaVuSans-53"/>
      </g>
     </g>
    </g>
    <g id="ytick_7">
     <g id="line2d_15">
      <g>
       <use style="stroke:#000000;stroke-width:0.8;" x="57.6" xlink:href="#m3c8ef5ffde" y="107.174472"/>
      </g>
     </g>
     <g id="text_16">
      <!-- 1.50 -->
      <g transform="translate(28.334375 110.97369)scale(0.1 -0.1)">
       <use xlink:href="#DejaVuSans-49"/>
       <use x="63.623047" xlink:href="#DejaVuSans-46"/>
       <use x="95.410156" xlink:href="#DejaVuSans-53"/>
       <use x="159.033203" xlink:href="#DejaVuSans-48"/>
      </g>
     </g>
    </g>
    <g id="ytick_8">
     <g id="line2d_16">
      <g>
       <use style="stroke:#000000;stroke-width:0.8;" x="57.6" xlink:href="#m3c8ef5ffde" y="75.788547"/>
      </g>
     </g>
     <g id="text_17">
      <!-- 1.75 -->
      <g transform="translate(28.334375 79.587766)scale(0.1 -0.1)">
       <use xlink:href="#DejaVuSans-49"/>
       <use x="63.623047" xlink:href="#DejaVuSans-46"/>
       <use x="95.410156" xlink:href="#DejaVuSans-55"/>
       <use x="159.033203" xlink:href="#DejaVuSans-53"/>
      </g>
     </g>
    </g>
    <g id="ytick_9">
     <g id="line2d_17">
      <g>
       <use style="stroke:#000000;stroke-width:0.8;" x="57.6" xlink:href="#m3c8ef5ffde" y="44.402623"/>
      </g>
     </g>
     <g id="text_18">
      <!-- 2.00 -->
      <g transform="translate(28.334375 48.201841)scale(0.1 -0.1)">
       <use xlink:href="#DejaVuSans-50"/>
       <use x="63.623047" xlink:href="#DejaVuSans-46"/>
       <use x="95.410156" xlink:href="#DejaVuSans-48"/>
       <use x="159.033203" xlink:href="#DejaVuSans-48"/>
      </g>
     </g>
    </g>
    <g id="text_19">
     <!-- Revenue ($), 30 day rolling average -->
     <g transform="translate(22.254687 264.463937)rotate(-90)scale(0.1 -0.1)">
      <defs>
       <path d="M 44.390625 34.1875 
Q 47.5625 33.109375 50.5625 29.59375 
Q 53.5625 26.078125 56.59375 19.921875 
L 66.609375 0 
L 56 0 
L 46.6875 18.703125 
Q 43.0625 26.03125 39.671875 28.421875 
Q 36.28125 30.8125 30.421875 30.8125 
L 19.671875 30.8125 
L 19.671875 0 
L 9.8125 0 
L 9.8125 72.90625 
L 32.078125 72.90625 
Q 44.578125 72.90625 50.734375 67.671875 
Q 56.890625 62.453125 56.890625 51.90625 
Q 56.890625 45.015625 53.6875 40.46875 
Q 50.484375 35.9375 44.390625 34.1875 
z
M 19.671875 64.796875 
L 19.671875 38.921875 
L 32.078125 38.921875 
Q 39.203125 38.921875 42.84375 42.21875 
Q 46.484375 45.515625 46.484375 51.90625 
Q 46.484375 58.296875 42.84375 61.546875 
Q 39.203125 64.796875 32.078125 64.796875 
z
" id="DejaVuSans-82"/>
       <path d="M 2.984375 54.6875 
L 12.5 54.6875 
L 29.59375 8.796875 
L 46.6875 54.6875 
L 56.203125 54.6875 
L 35.6875 0 
L 23.484375 0 
z
" id="DejaVuSans-118"/>
       <path d="M 54.890625 33.015625 
L 54.890625 0 
L 45.90625 0 
L 45.90625 32.71875 
Q 45.90625 40.484375 42.875 44.328125 
Q 39.84375 48.1875 33.796875 48.1875 
Q 26.515625 48.1875 22.3125 43.546875 
Q 18.109375 38.921875 18.109375 30.90625 
L 18.109375 0 
L 9.078125 0 
L 9.078125 54.6875 
L 18.109375 54.6875 
L 18.109375 46.1875 
Q 21.34375 51.125 25.703125 53.5625 
Q 30.078125 56 35.796875 56 
Q 45.21875 56 50.046875 50.171875 
Q 54.890625 44.34375 54.890625 33.015625 
z
" id="DejaVuSans-110"/>
       <path d="M 8.5 21.578125 
L 8.5 54.6875 
L 17.484375 54.6875 
L 17.484375 21.921875 
Q 17.484375 14.15625 20.5 10.265625 
Q 23.53125 6.390625 29.59375 6.390625 
Q 36.859375 6.390625 41.078125 11.03125 
Q 45.3125 15.671875 45.3125 23.6875 
L 45.3125 54.6875 
L 54.296875 54.6875 
L 54.296875 0 
L 45.3125 0 
L 45.3125 8.40625 
Q 42.046875 3.421875 37.71875 1 
Q 33.40625 -1.421875 27.6875 -1.421875 
Q 18.265625 -1.421875 13.375 4.4375 
Q 8.5 10.296875 8.5 21.578125 
z
M 31.109375 56 
z
" id="DejaVuSans-117"/>
       <path d="M 31 75.875 
Q 24.46875 64.65625 21.28125 53.65625 
Q 18.109375 42.671875 18.109375 31.390625 
Q 18.109375 20.125 21.3125 9.0625 
Q 24.515625 -2 31 -13.1875 
L 23.1875 -13.1875 
Q 15.875 -1.703125 12.234375 9.375 
Q 8.59375 20.453125 8.59375 31.390625 
Q 8.59375 42.28125 12.203125 53.3125 
Q 15.828125 64.359375 23.1875 75.875 
z
" id="DejaVuSans-40"/>
       <path d="M 33.796875 -14.703125 
L 28.90625 -14.703125 
L 28.859375 0 
Q 23.734375 0.09375 18.609375 1.1875 
Q 13.484375 2.296875 8.296875 4.5 
L 8.296875 13.28125 
Q 13.28125 10.15625 18.375 8.5625 
Q 23.484375 6.984375 28.90625 6.9375 
L 28.90625 29.203125 
Q 18.109375 30.953125 13.203125 35.15625 
Q 8.296875 39.359375 8.296875 46.6875 
Q 8.296875 54.640625 13.625 59.21875 
Q 18.953125 63.8125 28.90625 64.5 
L 28.90625 75.984375 
L 33.796875 75.984375 
L 33.796875 64.65625 
Q 38.328125 64.453125 42.578125 63.6875 
Q 46.828125 62.9375 50.875 61.625 
L 50.875 53.078125 
Q 46.828125 55.125 42.546875 56.25 
Q 38.28125 57.375 33.796875 57.5625 
L 33.796875 36.71875 
Q 44.875 35.015625 50.09375 30.609375 
Q 55.328125 26.21875 55.328125 18.609375 
Q 55.328125 10.359375 49.78125 5.59375 
Q 44.234375 0.828125 33.796875 0.09375 
z
M 28.90625 37.59375 
L 28.90625 57.625 
Q 23.25 56.984375 20.265625 54.390625 
Q 17.28125 51.8125 17.28125 47.515625 
Q 17.28125 43.3125 20.03125 40.96875 
Q 22.796875 38.625 28.90625 37.59375 
z
M 33.796875 28.21875 
L 33.796875 7.078125 
Q 39.984375 7.90625 43.140625 10.59375 
Q 46.296875 13.28125 46.296875 17.671875 
Q 46.296875 21.96875 43.28125 24.5 
Q 40.28125 27.046875 33.796875 28.21875 
z
" id="DejaVuSans-36"/>
       <path d="M 8.015625 75.875 
L 15.828125 75.875 
Q 23.140625 64.359375 26.78125 53.3125 
Q 30.421875 42.28125 30.421875 31.390625 
Q 30.421875 20.453125 26.78125 9.375 
Q 23.140625 -1.703125 15.828125 -13.1875 
L 8.015625 -13.1875 
Q 14.5 -2 17.703125 9.0625 
Q 20.90625 20.125 20.90625 31.390625 
Q 20.90625 42.671875 17.703125 53.65625 
Q 14.5 64.65625 8.015625 75.875 
z
" id="DejaVuSans-41"/>
       <path d="M 11.71875 12.40625 
L 22.015625 12.40625 
L 22.015625 4 
L 14.015625 -11.625 
L 7.71875 -11.625 
L 11.71875 4 
z
" id="DejaVuSans-44"/>
       <path d="M 45.40625 46.390625 
L 45.40625 75.984375 
L 54.390625 75.984375 
L 54.390625 0 
L 45.40625 0 
L 45.40625 8.203125 
Q 42.578125 3.328125 38.25 0.953125 
Q 33.9375 -1.421875 27.875 -1.421875 
Q 17.96875 -1.421875 11.734375 6.484375 
Q 5.515625 14.40625 5.515625 27.296875 
Q 5.515625 40.1875 11.734375 48.09375 
Q 17.96875 56 27.875 56 
Q 33.9375 56 38.25 53.625 
Q 42.578125 51.265625 45.40625 46.390625 
z
M 14.796875 27.296875 
Q 14.796875 17.390625 18.875 11.75 
Q 22.953125 6.109375 30.078125 6.109375 
Q 37.203125 6.109375 41.296875 11.75 
Q 45.40625 17.390625 45.40625 27.296875 
Q 45.40625 37.203125 41.296875 42.84375 
Q 37.203125 48.484375 30.078125 48.484375 
Q 22.953125 48.484375 18.875 42.84375 
Q 14.796875 37.203125 14.796875 27.296875 
z
" id="DejaVuSans-100"/>
       <path d="M 9.421875 75.984375 
L 18.40625 75.984375 
L 18.40625 0 
L 9.421875 0 
z
" id="DejaVuSans-108"/>
       <path d="M 9.421875 54.6875 
L 18.40625 54.6875 
L 18.40625 0 
L 9.421875 0 
z
M 9.421875 75.984375 
L 18.40625 75.984375 
L 18.40625 64.59375 
L 9.421875 64.59375 
z
" id="DejaVuSans-105"/>
       <path d="M 45.40625 27.984375 
Q 45.40625 37.75 41.375 43.109375 
Q 37.359375 48.484375 30.078125 48.484375 
Q 22.859375 48.484375 18.828125 43.109375 
Q 14.796875 37.75 14.796875 27.984375 
Q 14.796875 18.265625 18.828125 12.890625 
Q 22.859375 7.515625 30.078125 7.515625 
Q 37.359375 7.515625 41.375 12.890625 
Q 45.40625 18.265625 45.40625 27.984375 
z
M 54.390625 6.78125 
Q 54.390625 -7.171875 48.1875 -13.984375 
Q 42 -20.796875 29.203125 -20.796875 
Q 24.46875 -20.796875 20.265625 -20.09375 
Q 16.0625 -19.390625 12.109375 -17.921875 
L 12.109375 -9.1875 
Q 16.0625 -11.328125 19.921875 -12.34375 
Q 23.78125 -13.375 27.78125 -13.375 
Q 36.625 -13.375 41.015625 -8.765625 
Q 45.40625 -4.15625 45.40625 5.171875 
L 45.40625 9.625 
Q 42.625 4.78125 38.28125 2.390625 
Q 33.9375 0 27.875 0 
Q 17.828125 0 11.671875 7.65625 
Q 5.515625 15.328125 5.515625 27.984375 
Q 5.515625 40.671875 11.671875 48.328125 
Q 17.828125 56 27.875 56 
Q 33.9375 56 38.28125 53.609375 
Q 42.625 51.21875 45.40625 46.390625 
L 45.40625 54.6875 
L 54.390625 54.6875 
z
" id="DejaVuSans-103"/>
      </defs>
      <use xlink:href="#DejaVuSans-82"/>
      <use x="64.982422" xlink:href="#DejaVuSans-101"/>
      <use x="126.505859" xlink:href="#DejaVuSans-118"/>
      <use x="185.685547" xlink:href="#DejaVuSans-101"/>
      <use x="247.208984" xlink:href="#DejaVuSans-110"/>
      <use x="310.587891" xlink:href="#DejaVuSans-117"/>
      <use x="373.966797" xlink:href="#DejaVuSans-101"/>
      <use x="435.490234" xlink:href="#DejaVuSans-32"/>
      <use x="467.277344" xlink:href="#DejaVuSans-40"/>
      <use x="506.291016" xlink:href="#DejaVuSans-36"/>
      <use x="569.914062" xlink:href="#DejaVuSans-41"/>
      <use x="608.927734" xlink:href="#DejaVuSans-44"/>
      <use x="640.714844" xlink:href="#DejaVuSans-32"/>
      <use x="672.501953" xlink:href="#DejaVuSans-51"/>
      <use x="736.125" xlink:href="#DejaVuSans-48"/>
      <use x="799.748047" xlink:href="#DejaVuSans-32"/>
      <use x="831.535156" xlink:href="#DejaVuSans-100"/>
      <use x="895.011719" xlink:href="#DejaVuSans-97"/>
      <use x="956.291016" xlink:href="#DejaVuSans-121"/>
      <use x="1015.470703" xlink:href="#DejaVuSans-32"/>
      <use x="1047.257812" xlink:href="#DejaVuSans-114"/>
      <use x="1086.121094" xlink:href="#DejaVuSans-111"/>
      <use x="1147.302734" xlink:href="#DejaVuSans-108"/>
      <use x="1175.085938" xlink:href="#DejaVuSans-108"/>
      <use x="1202.869141" xlink:href="#DejaVuSans-105"/>
      <use x="1230.652344" xlink:href="#DejaVuSans-110"/>
      <use x="1294.03125" xlink:href="#DejaVuSans-103"/>
      <use x="1357.507812" xlink:href="#DejaVuSans-32"/>
      <use x="1389.294922" xlink:href="#DejaVuSans-97"/>
      <use x="1450.574219" xlink:href="#DejaVuSans-118"/>
      <use x="1509.753906" xlink:href="#DejaVuSans-101"/>
      <use x="1571.277344" xlink:href="#DejaVuSans-114"/>
      <use x="1612.390625" xlink:href="#DejaVuSans-97"/>
      <use x="1673.669922" xlink:href="#DejaVuSans-103"/>
      <use x="1737.146484" xlink:href="#DejaVuSans-101"/>
     </g>
    </g>
    <g id="text_20">
     <!-- 1e8 -->
     <g transform="translate(57.6 38.472)scale(0.1 -0.1)">
      <defs>
       <path d="M 31.78125 34.625 
Q 24.75 34.625 20.71875 30.859375 
Q 16.703125 27.09375 16.703125 20.515625 
Q 16.703125 13.921875 20.71875 10.15625 
Q 24.75 6.390625 31.78125 6.390625 
Q 38.8125 6.390625 42.859375 10.171875 
Q 46.921875 13.96875 46.921875 20.515625 
Q 46.921875 27.09375 42.890625 30.859375 
Q 38.875 34.625 31.78125 34.625 
z
M 21.921875 38.8125 
Q 15.578125 40.375 12.03125 44.71875 
Q 8.5 49.078125 8.5 55.328125 
Q 8.5 64.0625 14.71875 69.140625 
Q 20.953125 74.21875 31.78125 74.21875 
Q 42.671875 74.21875 48.875 69.140625 
Q 55.078125 64.0625 55.078125 55.328125 
Q 55.078125 49.078125 51.53125 44.71875 
Q 48 40.375 41.703125 38.8125 
Q 48.828125 37.15625 52.796875 32.3125 
Q 56.78125 27.484375 56.78125 20.515625 
Q 56.78125 9.90625 50.3125 4.234375 
Q 43.84375 -1.421875 31.78125 -1.421875 
Q 19.734375 -1.421875 13.25 4.234375 
Q 6.78125 9.90625 6.78125 20.515625 
Q 6.78125 27.484375 10.78125 32.3125 
Q 14.796875 37.15625 21.921875 38.8125 
z
M 18.3125 54.390625 
Q 18.3125 48.734375 21.84375 45.5625 
Q 25.390625 42.390625 31.78125 42.390625 
Q 38.140625 42.390625 41.71875 45.5625 
Q 45.3125 48.734375 45.3125 54.390625 
Q 45.3125 60.0625 41.71875 63.234375 
Q 38.140625 66.40625 31.78125 66.40625 
Q 25.390625 66.40625 21.84375 63.234375 
Q 18.3125 60.0625 18.3125 54.390625 
z
" id="DejaVuSans-56"/>
      </defs>
      <use xlink:href="#DejaVuSans-49"/>
      <use x="63.623047" xlink:href="#DejaVuSans-101"/>
      <use x="125.146484" xlink:href="#DejaVuSans-56"/>
     </g>
    </g>
   </g>
   <g id="line2d_18">
    <path clip-path="url(#pd6f7d71dc6)" d="M 73.832727 109.569873 
L 74.722192 105.834911 
L 75.611656 103.570361 
L 76.501121 97.124406 
L 77.390585 88.337377 
L 78.28005 85.706338 
L 79.169514 90.533889 
L 80.058979 91.919667 
L 80.948443 91.039277 
L 81.837908 91.127007 
L 82.727372 86.36658 
L 83.616837 78.391727 
L 84.506301 78.812894 
L 85.395766 86.21942 
L 86.28523 89.375683 
L 87.174695 88.733672 
L 88.064159 89.51169 
L 88.953624 85.815393 
L 89.843088 78.813222 
L 91.622017 88.477507 
L 92.511482 95.642105 
L 93.400946 100.164605 
L 94.290411 112.550054 
L 95.179875 119.156307 
L 96.06934 121.157456 
L 96.958804 127.314691 
L 97.848269 137.879389 
L 98.737733 146.337236 
L 99.627198 152.452077 
L 100.516663 161.737502 
L 101.406127 163.145555 
L 102.295592 161.125781 
L 103.185056 166.584358 
L 104.074521 175.733839 
L 104.963985 180.5483 
L 105.85345 181.579027 
L 106.742914 183.591648 
L 107.632379 180.089566 
L 108.521843 172.765413 
L 109.411308 173.238969 
L 110.300772 181.089508 
L 111.190237 185.360075 
L 112.079701 185.496576 
L 113.85863 180.460737 
L 114.748095 173.402377 
L 115.637559 173.207447 
L 116.527024 178.109736 
L 118.305953 186.61752 
L 119.195417 187.786891 
L 120.084882 182.809351 
L 120.974346 174.644211 
L 121.863811 172.896195 
L 122.753275 180.123891 
L 123.64274 183.262793 
L 124.532204 183.262151 
L 125.421669 183.809024 
L 126.311133 179.775007 
L 127.200598 172.03833 
L 128.090062 169.825294 
L 128.979527 174.935028 
L 129.868991 175.286161 
L 130.758456 174.994319 
L 131.64792 175.540615 
L 133.426849 150.110752 
L 134.316314 145.743158 
L 135.205778 151.863681 
L 136.095243 153.401385 
L 136.984707 152.057306 
L 137.874172 151.056574 
L 139.653101 139.922231 
L 140.542565 138.628891 
L 141.43203 145.917952 
L 142.321494 150.021242 
L 143.210959 152.83332 
L 144.100423 153.613116 
L 144.989888 146.200937 
L 145.879352 137.050543 
L 146.768817 136.6898 
L 147.658281 144.211081 
L 148.547746 147.026712 
L 149.43721 146.130106 
L 150.326675 146.356714 
L 151.216139 139.972134 
L 152.105604 131.333787 
L 152.995068 129.782935 
L 153.884533 136.988051 
L 154.773998 140.030415 
L 155.663462 139.739729 
L 156.552927 140.3993 
L 157.442391 132.758296 
L 158.331856 123.630882 
L 159.22132 130.277568 
L 160.110785 142.571276 
L 161.000249 149.787823 
L 161.889714 151.110211 
L 162.779178 153.831938 
L 163.668643 150.365825 
L 164.558107 144.71459 
L 165.447572 146.887477 
L 166.337036 155.655618 
L 167.226501 159.842769 
L 168.115965 159.72082 
L 169.00543 160.195211 
L 170.784359 148.737736 
L 171.673823 153.170146 
L 172.563288 161.449823 
L 173.452752 166.021318 
L 174.342217 166.794622 
L 175.231681 169.016485 
L 176.121146 140.690108 
L 177.01061 119.655118 
L 177.900075 108.816313 
L 178.789539 111.461406 
L 179.679004 111.394907 
L 180.568468 108.105824 
L 181.457933 106.568737 
L 182.347397 98.127734 
L 183.236862 84.799216 
L 184.126326 83.233036 
L 185.015791 90.894537 
L 185.905255 94.386207 
L 186.79472 93.836831 
L 187.684184 94.575828 
L 188.573649 87.205216 
L 189.463113 76.746513 
L 190.352578 73.725913 
L 191.242042 79.815161 
L 192.131507 82.041101 
L 193.020971 81.850616 
L 193.910436 82.756211 
L 194.7999 76.441969 
L 195.689365 68.604451 
L 196.578829 68.467522 
L 197.468294 73.130691 
L 198.357758 74.452886 
L 199.247223 74.746075 
L 200.136687 75.358311 
L 201.026152 66.823704 
L 201.915616 56.822907 
L 202.805081 76.274312 
L 204.58401 104.600697 
L 206.362939 113.881858 
L 207.252403 108.616078 
L 208.141868 101.315983 
L 209.031333 102.614056 
L 209.920797 114.409627 
L 210.810262 120.318296 
L 211.699726 119.840506 
L 212.589191 120.535318 
L 213.478655 113.058822 
L 214.36812 103.785299 
L 215.257584 104.191102 
L 216.147049 112.992648 
L 217.036513 117.483143 
L 217.925978 116.752736 
L 218.815442 117.159231 
L 219.704907 111.968375 
L 220.594371 104.949975 
L 221.483836 104.999199 
L 222.3733 112.619361 
L 223.262765 115.985971 
L 224.152229 115.938364 
L 225.041694 116.659727 
L 226.820623 94.391074 
L 227.710087 94.12133 
L 228.599552 100.862804 
L 229.489016 105.53526 
L 230.378481 109.353569 
L 231.267945 109.309781 
L 232.15741 103.96653 
L 233.046874 95.742216 
L 233.936339 97.719264 
L 234.825803 105.727324 
L 235.715268 103.535416 
L 236.604732 97.926042 
L 237.494197 94.263048 
L 238.383661 85.875458 
L 239.273126 76.156095 
L 240.16259 76.921494 
L 241.052055 84.149425 
L 241.941519 86.937316 
L 242.830984 86.238847 
L 243.720448 87.076437 
L 244.609913 83.108089 
L 245.499377 76.939947 
L 246.388842 77.282609 
L 247.278306 83.169329 
L 248.167771 86.858107 
L 249.057235 86.463384 
L 249.9467 88.270271 
L 251.725629 59.737504 
L 252.615093 59.628745 
L 253.504558 66.90495 
L 254.394022 69.116287 
L 255.283487 68.736696 
L 256.172951 70.899315 
L 257.062416 66.612825 
L 257.95188 59.963812 
L 258.841345 59.211988 
L 259.730809 66.068016 
L 260.620274 69.006029 
L 261.509738 69.125171 
L 262.399203 77.232617 
L 263.288667 77.109642 
L 264.178132 75.389612 
L 265.067597 79.13613 
L 265.957061 88.37452 
L 266.846526 92.578748 
L 267.73599 93.603377 
L 268.625455 96.825696 
L 269.514919 92.990919 
L 270.404384 87.672239 
L 271.293848 87.835931 
L 272.183313 93.9779 
L 273.072777 96.08532 
L 273.962242 96.223722 
L 274.851706 98.496074 
L 275.741171 95.110111 
L 276.630635 89.047217 
L 277.5201 100.483499 
L 278.409564 114.368922 
L 279.299029 124.496243 
L 280.188493 127.524067 
L 281.077958 133.702218 
L 281.967422 132.518572 
L 282.856887 128.945173 
L 283.746351 132.673933 
L 284.635816 141.733822 
L 285.52528 147.671704 
L 286.414745 149.512782 
L 287.304209 153.339586 
L 288.193674 153.007887 
L 289.083138 150.05431 
L 289.972603 152.710772 
L 290.862067 157.692471 
L 291.751532 163.674737 
L 292.640996 165.797818 
L 293.530461 169.68833 
L 294.419925 163.927711 
L 295.30939 156.743542 
L 296.198854 158.412972 
L 297.088319 165.910207 
L 297.977783 170.223513 
L 298.867248 171.398214 
L 299.756712 174.717717 
L 300.646177 171.066758 
L 301.535641 165.183107 
L 302.425106 166.792939 
L 303.31457 173.704508 
L 304.204035 177.578928 
L 305.093499 178.336381 
L 305.982964 180.389695 
L 306.872428 175.057697 
L 307.761893 168.455657 
L 308.651357 168.738137 
L 309.540822 174.536087 
L 310.430286 177.44249 
L 311.319751 177.591655 
L 312.209215 178.922935 
L 313.09868 176.030519 
L 313.988144 170.333046 
L 314.877609 169.714397 
L 316.656538 178.156879 
L 317.546002 181.695656 
L 318.435467 182.307822 
L 320.214396 164.619825 
L 321.103861 166.272494 
L 321.993325 173.462569 
L 322.88279 175.573328 
L 323.772254 174.405363 
L 324.661719 174.65473 
L 325.551183 168.345007 
L 326.440648 159.787767 
L 327.330112 158.844804 
L 328.219577 163.357123 
L 329.109041 165.186106 
L 329.998506 164.854262 
L 330.88797 165.436429 
L 331.777435 159.118862 
L 332.666899 150.442714 
L 333.556364 151.514574 
L 334.445828 158.177213 
L 335.335293 160.950407 
L 336.224757 161.302896 
L 337.114222 162.253684 
L 338.003686 158.471051 
L 338.893151 152.264831 
L 339.782615 151.216652 
L 340.67208 156.834104 
L 341.561544 159.043458 
L 342.451009 159.095172 
L 343.340473 159.526243 
L 344.229938 154.974785 
L 345.119402 147.352136 
L 346.008867 151.295805 
L 346.898331 159.624842 
L 347.787796 163.992241 
L 348.67726 165.066946 
L 349.566725 167.564151 
L 350.456189 163.932537 
L 351.345654 157.536044 
L 352.235118 159.049931 
L 353.124583 165.549363 
L 354.014047 170.387266 
L 354.903512 172.697835 
L 355.792976 174.3375 
L 356.682441 170.550523 
L 357.571905 164.021706 
L 358.46137 166.549365 
L 359.350834 174.92918 
L 360.240299 179.30458 
L 361.129763 179.641059 
L 362.019228 181.304209 
L 362.908692 171.454036 
L 363.798157 158.714959 
L 364.687621 153.669137 
L 365.577086 157.581917 
L 366.46655 157.289417 
L 367.356015 150.801787 
L 368.245479 146.793544 
L 370.024408 124.824539 
L 370.913873 123.723524 
L 371.803337 130.651001 
L 372.692802 133.600447 
L 373.582267 133.584052 
L 374.471731 134.739127 
L 375.361196 132.09308 
L 376.25066 126.430865 
L 377.140125 128.019452 
L 378.029589 135.406921 
L 378.919054 139.54776 
L 379.808518 141.57627 
L 380.697983 142.923756 
L 381.587447 137.913012 
L 382.476912 130.608189 
L 383.366376 130.591284 
L 384.255841 137.18939 
L 385.145305 139.685706 
L 386.03477 139.46715 
L 386.924234 140.31088 
L 387.813699 122.218458 
L 388.703163 110.228435 
L 389.592628 110.235196 
L 390.482092 116.004385 
L 391.371557 119.740278 
L 392.261021 109.525341 
L 393.150486 102.787142 
L 394.03995 98.840783 
L 394.929415 92.874651 
L 395.818879 95.077613 
L 396.708344 99.263164 
L 397.597808 98.581892 
L 397.597808 98.581892 
" style="fill:none;stroke:#1f77b4;stroke-linecap:square;stroke-width:1.5;"/>
   </g>
   <g id="line2d_19">
    <path clip-path="url(#pd6f7d71dc6)" d="M 73.832727 90.274293 
L 74.722192 86.991453 
L 75.611656 80.083431 
L 76.501121 71.383784 
L 77.390585 69.089168 
L 78.28005 73.872853 
L 79.169514 75.679211 
L 80.058979 75.109328 
L 80.948443 75.684075 
L 81.837908 69.52581 
L 82.727372 61.018739 
L 83.616837 61.138475 
L 84.506301 68.105482 
L 85.395766 70.817463 
L 86.28523 70.253925 
L 87.174695 71.011799 
L 88.064159 63.629639 
L 88.953624 53.568 
L 89.843088 64.221721 
L 90.732553 70.465831 
L 91.622017 78.620083 
L 92.511482 85.271369 
L 93.400946 90.150876 
L 94.290411 98.511372 
L 95.179875 101.48987 
L 96.06934 107.62135 
L 96.958804 118.401757 
L 97.848269 126.582041 
L 99.627198 139.639998 
L 100.516663 145.542713 
L 101.406127 144.103059 
L 102.295592 150.212101 
L 103.185056 159.328958 
L 104.074521 163.875947 
L 104.963985 164.889684 
L 105.85345 166.762719 
L 106.742914 163.566987 
L 107.632379 157.872162 
L 108.521843 160.940448 
L 109.411308 169.322274 
L 110.300772 173.714932 
L 111.190237 174.299617 
L 112.079701 176.222072 
L 113.85863 160.117812 
L 114.748095 161.773569 
L 116.527024 174.888719 
L 117.416488 180.323163 
L 118.305953 182.236341 
L 119.195417 178.976644 
L 120.084882 172.94713 
L 120.974346 173.700053 
L 121.863811 182.35928 
L 122.753275 186.471228 
L 123.64274 186.391709 
L 124.532204 187.635722 
L 125.421669 184.203404 
L 126.311133 178.039141 
L 127.200598 177.498156 
L 128.090062 183.744786 
L 128.979527 184.167364 
L 129.868991 184.089646 
L 130.758456 184.877415 
L 131.64792 180.861892 
L 132.537385 174.095025 
L 133.426849 174.360067 
L 134.316314 180.256252 
L 135.205778 182.493238 
L 136.095243 182.411403 
L 136.984707 183.280926 
L 137.874172 181.048771 
L 138.763636 178.404579 
L 139.653101 186.473928 
L 140.542565 195.850206 
L 141.43203 203.103395 
L 142.321494 207.893685 
L 143.210959 210.524574 
L 144.989888 213.530047 
L 145.879352 218.852752 
L 146.768817 226.832636 
L 147.658281 231.82182 
L 148.547746 233.006392 
L 149.43721 235.021358 
L 150.326675 236.630287 
M 156.552927 259.759882 
L 157.442391 260.893318 
L 158.331856 266.139191 
L 159.22132 274.049557 
L 160.110785 278.834728 
L 161.000249 280.27013 
L 161.889714 282.507112 
L 162.779178 283.873124 
L 163.668643 284.95281 
L 165.447572 292.225296 
L 166.337036 294.527546 
L 167.226501 295.164595 
L 168.115965 295.414363 
L 170.784359 295.487665 
L 201.026152 295.378508 
L 240.16259 295.019648 
L 255.283487 295.114932 
L 258.841345 295.044192 
L 268.625455 294.946516 
L 273.072777 294.972365 
L 274.851706 294.908559 
L 278.409564 294.774854 
L 280.188493 294.730754 
L 282.856887 293.841909 
L 286.414745 293.58194 
L 288.193674 291.896196 
L 289.083138 291.436366 
L 292.640996 290.919257 
L 293.530461 290.601011 
L 295.30939 289.791945 
L 296.198854 289.57038 
L 298.867248 289.297695 
L 299.756712 288.982514 
L 300.646177 288.521869 
L 301.535641 288.346174 
L 305.093499 288.162758 
L 305.982964 287.837637 
L 306.872428 287.384148 
L 307.761893 287.458805 
L 308.651357 287.736284 
L 309.540822 287.858381 
L 311.319751 287.845324 
L 313.09868 287.231506 
L 315.767073 289.001407 
L 317.546002 289.146464 
L 318.435467 288.939305 
L 319.324932 288.580024 
L 320.214396 288.634691 
L 321.993325 289.357763 
L 322.88279 289.538511 
L 323.772254 289.572423 
L 324.661719 289.218343 
L 325.551183 288.734092 
L 326.440648 288.696046 
L 327.330112 289.035302 
L 328.219577 289.187637 
L 329.998506 289.246253 
L 331.777435 288.273534 
L 332.666899 288.169015 
L 333.556364 288.556169 
L 334.445828 288.684515 
L 336.224757 288.705155 
L 337.114222 288.312795 
L 338.003686 287.682941 
L 338.893151 287.591795 
L 339.782615 287.936277 
L 340.67208 288.079799 
L 342.451009 288.070346 
L 344.229938 287.111286 
L 345.119402 287.057207 
L 346.008867 287.455754 
L 346.898331 287.613724 
L 348.67726 287.57308 
L 349.566725 287.069228 
L 350.456189 286.408241 
L 351.345654 286.441391 
L 352.235118 286.923003 
L 353.124583 287.133219 
L 354.903512 287.095315 
L 355.792976 286.534294 
L 356.682441 285.802698 
L 357.571905 285.957117 
L 359.350834 286.755018 
L 361.129763 286.821742 
L 362.019228 286.593517 
L 362.908692 286.217384 
L 363.798157 286.452369 
L 364.687621 287.110757 
L 365.577086 287.449007 
L 366.46655 287.090083 
L 367.356015 286.601444 
L 369.134944 284.89169 
L 370.024408 284.847163 
L 370.913873 285.349898 
L 371.803337 285.616706 
L 373.582267 285.656613 
L 374.471731 285.348538 
L 375.361196 284.795538 
L 376.25066 284.990993 
L 377.140125 285.655484 
L 378.029589 285.980483 
L 379.808518 286.083479 
L 380.697983 285.927897 
L 381.587447 285.494269 
M 383.366376 286.883353 
L 384.255841 287.228777 
L 386.03477 287.338708 
L 387.813699 286.511288 
L 388.703163 286.479653 
L 389.592628 286.809965 
L 390.482092 286.90022 
L 393.150486 286.810488 
L 394.03995 286.930421 
L 394.929415 287.520468 
L 395.818879 288.281024 
L 396.708344 288.633096 
L 398.487273 288.424446 
L 398.487273 288.424446 
" style="fill:none;stroke:#ff7f0e;stroke-linecap:square;stroke-width:1.5;"/>
   </g>
   <g id="line2d_20">
    <path clip-path="url(#pd6f7d71dc6)" d="M 73.832727 288.053566 
L 74.722192 287.599599 
L 75.611656 287.692175 
L 76.501121 288.241012 
L 77.390585 288.51182 
L 79.169514 288.508336 
L 80.058979 288.286708 
L 80.948443 287.854694 
L 81.837908 287.895546 
L 82.727372 288.366338 
L 84.506301 288.263797 
L 85.395766 288.268304 
L 86.28523 287.889161 
L 87.174695 287.289882 
L 88.064159 287.264155 
L 89.843088 287.781391 
L 91.622017 287.933015 
L 92.511482 287.713386 
L 93.400946 287.170984 
L 94.290411 287.346287 
L 95.179875 287.774966 
L 96.06934 288.052395 
L 97.848269 288.30485 
L 98.737733 288.270726 
L 99.627198 288.020129 
L 100.516663 288.218047 
L 101.406127 288.724045 
L 102.295592 288.963215 
L 104.074521 289.056121 
L 104.963985 288.900056 
L 105.85345 288.543165 
L 106.742914 288.686116 
L 107.632379 289.153028 
L 108.521843 289.381094 
L 110.300772 289.429094 
L 111.190237 289.277118 
L 112.079701 288.927925 
L 112.969166 288.929211 
L 114.748095 289.813962 
L 115.637559 290.053615 
L 116.527024 290.117846 
L 117.416488 290.003578 
L 118.305953 289.692917 
L 119.195417 289.806476 
L 120.084882 290.40398 
L 120.974346 290.659348 
L 123.64274 290.60178 
L 124.532204 290.331989 
L 125.421669 290.376229 
L 126.311133 290.821675 
L 127.200598 291.032218 
L 128.979527 291.054343 
L 129.868991 290.225683 
L 130.758456 289.042684 
L 131.64792 288.5486 
L 132.537385 288.845664 
L 135.205778 288.59227 
L 136.095243 288.052594 
L 136.984707 287.165109 
L 136.984707 287.165109 
" style="fill:none;stroke:#2ca02c;stroke-linecap:square;stroke-width:1.5;"/>
   </g>
   <g id="patch_3">
    <path d="M 57.6 307.584 
L 57.6 41.472 
" style="fill:none;stroke:#000000;stroke-linecap:square;stroke-linejoin:miter;stroke-width:0.8;"/>
   </g>
   <g id="patch_4">
    <path d="M 414.72 307.584 
L 414.72 41.472 
" style="fill:none;stroke:#000000;stroke-linecap:square;stroke-linejoin:miter;stroke-width:0.8;"/>
   </g>
   <g id="patch_5">
    <path d="M 57.6 307.584 
L 414.72 307.584 
" style="fill:none;stroke:#000000;stroke-linecap:square;stroke-linejoin:miter;stroke-width:0.8;"/>
   </g>
   <g id="patch_6">
    <path d="M 57.6 41.472 
L 414.72 41.472 
" style="fill:none;stroke:#000000;stroke-linecap:square;stroke-linejoin:miter;stroke-width:0.8;"/>
   </g>
   <g id="text_21">
    <!-- US Film Revenues Tracker: 2019-01-01 to 2021-03-13 -->
    <g transform="translate(75.751875 35.472)scale(0.12 -0.12)">
     <defs>
      <path d="M 8.6875 72.90625 
L 18.609375 72.90625 
L 18.609375 28.609375 
Q 18.609375 16.890625 22.84375 11.734375 
Q 27.09375 6.59375 36.625 6.59375 
Q 46.09375 6.59375 50.34375 11.734375 
Q 54.59375 16.890625 54.59375 28.609375 
L 54.59375 72.90625 
L 64.5 72.90625 
L 64.5 27.390625 
Q 64.5 13.140625 57.4375 5.859375 
Q 50.390625 -1.421875 36.625 -1.421875 
Q 22.796875 -1.421875 15.734375 5.859375 
Q 8.6875 13.140625 8.6875 27.390625 
z
" id="DejaVuSans-85"/>
      <path d="M 53.515625 70.515625 
L 53.515625 60.890625 
Q 47.90625 63.578125 42.921875 64.890625 
Q 37.9375 66.21875 33.296875 66.21875 
Q 25.25 66.21875 20.875 63.09375 
Q 16.5 59.96875 16.5 54.203125 
Q 16.5 49.359375 19.40625 46.890625 
Q 22.3125 44.4375 30.421875 42.921875 
L 36.375 41.703125 
Q 47.40625 39.59375 52.65625 34.296875 
Q 57.90625 29 57.90625 20.125 
Q 57.90625 9.515625 50.796875 4.046875 
Q 43.703125 -1.421875 29.984375 -1.421875 
Q 24.8125 -1.421875 18.96875 -0.25 
Q 13.140625 0.921875 6.890625 3.21875 
L 6.890625 13.375 
Q 12.890625 10.015625 18.65625 8.296875 
Q 24.421875 6.59375 29.984375 6.59375 
Q 38.421875 6.59375 43.015625 9.90625 
Q 47.609375 13.234375 47.609375 19.390625 
Q 47.609375 24.75 44.3125 27.78125 
Q 41.015625 30.8125 33.5 32.328125 
L 27.484375 33.5 
Q 16.453125 35.6875 11.515625 40.375 
Q 6.59375 45.0625 6.59375 53.421875 
Q 6.59375 63.09375 13.40625 68.65625 
Q 20.21875 74.21875 32.171875 74.21875 
Q 37.3125 74.21875 42.625 73.28125 
Q 47.953125 72.359375 53.515625 70.515625 
z
" id="DejaVuSans-83"/>
      <path d="M 9.8125 72.90625 
L 51.703125 72.90625 
L 51.703125 64.59375 
L 19.671875 64.59375 
L 19.671875 43.109375 
L 48.578125 43.109375 
L 48.578125 34.8125 
L 19.671875 34.8125 
L 19.671875 0 
L 9.8125 0 
z
" id="DejaVuSans-70"/>
      <path d="M 52 44.1875 
Q 55.375 50.25 60.0625 53.125 
Q 64.75 56 71.09375 56 
Q 79.640625 56 84.28125 50.015625 
Q 88.921875 44.046875 88.921875 33.015625 
L 88.921875 0 
L 79.890625 0 
L 79.890625 32.71875 
Q 79.890625 40.578125 77.09375 44.375 
Q 74.3125 48.1875 68.609375 48.1875 
Q 61.625 48.1875 57.5625 43.546875 
Q 53.515625 38.921875 53.515625 30.90625 
L 53.515625 0 
L 44.484375 0 
L 44.484375 32.71875 
Q 44.484375 40.625 41.703125 44.40625 
Q 38.921875 48.1875 33.109375 48.1875 
Q 26.21875 48.1875 22.15625 43.53125 
Q 18.109375 38.875 18.109375 30.90625 
L 18.109375 0 
L 9.078125 0 
L 9.078125 54.6875 
L 18.109375 54.6875 
L 18.109375 46.1875 
Q 21.1875 51.21875 25.484375 53.609375 
Q 29.78125 56 35.6875 56 
Q 41.65625 56 45.828125 52.96875 
Q 50 49.953125 52 44.1875 
z
" id="DejaVuSans-109"/>
      <path d="M 44.28125 53.078125 
L 44.28125 44.578125 
Q 40.484375 46.53125 36.375 47.5 
Q 32.28125 48.484375 27.875 48.484375 
Q 21.1875 48.484375 17.84375 46.4375 
Q 14.5 44.390625 14.5 40.28125 
Q 14.5 37.15625 16.890625 35.375 
Q 19.28125 33.59375 26.515625 31.984375 
L 29.59375 31.296875 
Q 39.15625 29.25 43.1875 25.515625 
Q 47.21875 21.78125 47.21875 15.09375 
Q 47.21875 7.46875 41.1875 3.015625 
Q 35.15625 -1.421875 24.609375 -1.421875 
Q 20.21875 -1.421875 15.453125 -0.5625 
Q 10.6875 0.296875 5.421875 2 
L 5.421875 11.28125 
Q 10.40625 8.6875 15.234375 7.390625 
Q 20.0625 6.109375 24.8125 6.109375 
Q 31.15625 6.109375 34.5625 8.28125 
Q 37.984375 10.453125 37.984375 14.40625 
Q 37.984375 18.0625 35.515625 20.015625 
Q 33.0625 21.96875 24.703125 23.78125 
L 21.578125 24.515625 
Q 13.234375 26.265625 9.515625 29.90625 
Q 5.8125 33.546875 5.8125 39.890625 
Q 5.8125 47.609375 11.28125 51.796875 
Q 16.75 56 26.8125 56 
Q 31.78125 56 36.171875 55.265625 
Q 40.578125 54.546875 44.28125 53.078125 
z
" id="DejaVuSans-115"/>
      <path d="M -0.296875 72.90625 
L 61.375 72.90625 
L 61.375 64.59375 
L 35.5 64.59375 
L 35.5 0 
L 25.59375 0 
L 25.59375 64.59375 
L -0.296875 64.59375 
z
" id="DejaVuSans-84"/>
      <path d="M 48.78125 52.59375 
L 48.78125 44.1875 
Q 44.96875 46.296875 41.140625 47.34375 
Q 37.3125 48.390625 33.40625 48.390625 
Q 24.65625 48.390625 19.8125 42.84375 
Q 14.984375 37.3125 14.984375 27.296875 
Q 14.984375 17.28125 19.8125 11.734375 
Q 24.65625 6.203125 33.40625 6.203125 
Q 37.3125 6.203125 41.140625 7.25 
Q 44.96875 8.296875 48.78125 10.40625 
L 48.78125 2.09375 
Q 45.015625 0.34375 40.984375 -0.53125 
Q 36.96875 -1.421875 32.421875 -1.421875 
Q 20.0625 -1.421875 12.78125 6.34375 
Q 5.515625 14.109375 5.515625 27.296875 
Q 5.515625 40.671875 12.859375 48.328125 
Q 20.21875 56 33.015625 56 
Q 37.15625 56 41.109375 55.140625 
Q 45.0625 54.296875 48.78125 52.59375 
z
" id="DejaVuSans-99"/>
      <path d="M 9.078125 75.984375 
L 18.109375 75.984375 
L 18.109375 31.109375 
L 44.921875 54.6875 
L 56.390625 54.6875 
L 27.390625 29.109375 
L 57.625 0 
L 45.90625 0 
L 18.109375 26.703125 
L 18.109375 0 
L 9.078125 0 
z
" id="DejaVuSans-107"/>
      <path d="M 11.71875 12.40625 
L 22.015625 12.40625 
L 22.015625 0 
L 11.71875 0 
z
M 11.71875 51.703125 
L 22.015625 51.703125 
L 22.015625 39.3125 
L 11.71875 39.3125 
z
" id="DejaVuSans-58"/>
      <path d="M 10.984375 1.515625 
L 10.984375 10.5 
Q 14.703125 8.734375 18.5 7.8125 
Q 22.3125 6.890625 25.984375 6.890625 
Q 35.75 6.890625 40.890625 13.453125 
Q 46.046875 20.015625 46.78125 33.40625 
Q 43.953125 29.203125 39.59375 26.953125 
Q 35.25 24.703125 29.984375 24.703125 
Q 19.046875 24.703125 12.671875 31.3125 
Q 6.296875 37.9375 6.296875 49.421875 
Q 6.296875 60.640625 12.9375 67.421875 
Q 19.578125 74.21875 30.609375 74.21875 
Q 43.265625 74.21875 49.921875 64.515625 
Q 56.59375 54.828125 56.59375 36.375 
Q 56.59375 19.140625 48.40625 8.859375 
Q 40.234375 -1.421875 26.421875 -1.421875 
Q 22.703125 -1.421875 18.890625 -0.6875 
Q 15.09375 0.046875 10.984375 1.515625 
z
M 30.609375 32.421875 
Q 37.25 32.421875 41.125 36.953125 
Q 45.015625 41.5 45.015625 49.421875 
Q 45.015625 57.28125 41.125 61.84375 
Q 37.25 66.40625 30.609375 66.40625 
Q 23.96875 66.40625 20.09375 61.84375 
Q 16.21875 57.28125 16.21875 49.421875 
Q 16.21875 41.5 20.09375 36.953125 
Q 23.96875 32.421875 30.609375 32.421875 
z
" id="DejaVuSans-57"/>
      <path d="M 4.890625 31.390625 
L 31.203125 31.390625 
L 31.203125 23.390625 
L 4.890625 23.390625 
z
" id="DejaVuSans-45"/>
      <path d="M 18.3125 70.21875 
L 18.3125 54.6875 
L 36.8125 54.6875 
L 36.8125 47.703125 
L 18.3125 47.703125 
L 18.3125 18.015625 
Q 18.3125 11.328125 20.140625 9.421875 
Q 21.96875 7.515625 27.59375 7.515625 
L 36.8125 7.515625 
L 36.8125 0 
L 27.59375 0 
Q 17.1875 0 13.234375 3.875 
Q 9.28125 7.765625 9.28125 18.015625 
L 9.28125 47.703125 
L 2.6875 47.703125 
L 2.6875 54.6875 
L 9.28125 54.6875 
L 9.28125 70.21875 
z
" id="DejaVuSans-116"/>
     </defs>
     <use xlink:href="#DejaVuSans-85"/>
     <use x="73.193359" xlink:href="#DejaVuSans-83"/>
     <use x="136.669922" xlink:href="#DejaVuSans-32"/>
     <use x="168.457031" xlink:href="#DejaVuSans-70"/>
     <use x="218.726562" xlink:href="#DejaVuSans-105"/>
     <use x="246.509766" xlink:href="#DejaVuSans-108"/>
     <use x="274.292969" xlink:href="#DejaVuSans-109"/>
     <use x="371.705078" xlink:href="#DejaVuSans-32"/>
     <use x="403.492188" xlink:href="#DejaVuSans-82"/>
     <use x="468.474609" xlink:href="#DejaVuSans-101"/>
     <use x="529.998047" xlink:href="#DejaVuSans-118"/>
     <use x="589.177734" xlink:href="#DejaVuSans-101"/>
     <use x="650.701172" xlink:href="#DejaVuSans-110"/>
     <use x="714.080078" xlink:href="#DejaVuSans-117"/>
     <use x="777.458984" xlink:href="#DejaVuSans-101"/>
     <use x="838.982422" xlink:href="#DejaVuSans-115"/>
     <use x="891.082031" xlink:href="#DejaVuSans-32"/>
     <use x="922.869141" xlink:href="#DejaVuSans-84"/>
     <use x="969.203125" xlink:href="#DejaVuSans-114"/>
     <use x="1010.316406" xlink:href="#DejaVuSans-97"/>
     <use x="1071.595703" xlink:href="#DejaVuSans-99"/>
     <use x="1126.576172" xlink:href="#DejaVuSans-107"/>
     <use x="1180.861328" xlink:href="#DejaVuSans-101"/>
     <use x="1242.384766" xlink:href="#DejaVuSans-114"/>
     <use x="1281.748047" xlink:href="#DejaVuSans-58"/>
     <use x="1315.439453" xlink:href="#DejaVuSans-32"/>
     <use x="1347.226562" xlink:href="#DejaVuSans-50"/>
     <use x="1410.849609" xlink:href="#DejaVuSans-48"/>
     <use x="1474.472656" xlink:href="#DejaVuSans-49"/>
     <use x="1538.095703" xlink:href="#DejaVuSans-57"/>
     <use x="1601.71875" xlink:href="#DejaVuSans-45"/>
     <use x="1637.802734" xlink:href="#DejaVuSans-48"/>
     <use x="1701.425781" xlink:href="#DejaVuSans-49"/>
     <use x="1765.048828" xlink:href="#DejaVuSans-45"/>
     <use x="1801.132812" xlink:href="#DejaVuSans-48"/>
     <use x="1864.755859" xlink:href="#DejaVuSans-49"/>
     <use x="1928.378906" xlink:href="#DejaVuSans-32"/>
     <use x="1960.166016" xlink:href="#DejaVuSans-116"/>
     <use x="1999.375" xlink:href="#DejaVuSans-111"/>
     <use x="2060.556641" xlink:href="#DejaVuSans-32"/>
     <use x="2092.34375" xlink:href="#DejaVuSans-50"/>
     <use x="2155.966797" xlink:href="#DejaVuSans-48"/>
     <use x="2219.589844" xlink:href="#DejaVuSans-50"/>
     <use x="2283.212891" xlink:href="#DejaVuSans-49"/>
     <use x="2346.835938" xlink:href="#DejaVuSans-45"/>
     <use x="2382.919922" xlink:href="#DejaVuSans-48"/>
     <use x="2446.542969" xlink:href="#DejaVuSans-51"/>
     <use x="2510.166016" xlink:href="#DejaVuSans-45"/>
     <use x="2546.25" xlink:href="#DejaVuSans-49"/>
     <use x="2609.873047" xlink:href="#DejaVuSans-51"/>
    </g>
   </g>
   <g id="legend_1">
    <g id="patch_7">
     <path d="M 207.435 198.045187 
L 264.885 198.045187 
Q 266.885 198.045187 266.885 196.045187 
L 266.885 153.010812 
Q 266.885 151.010812 264.885 151.010812 
L 207.435 151.010812 
Q 205.435 151.010812 205.435 153.010812 
L 205.435 196.045187 
Q 205.435 198.045187 207.435 198.045187 
z
" style="fill:#ffffff;opacity:0.8;stroke:#cccccc;stroke-linejoin:miter;"/>
    </g>
    <g id="line2d_21">
     <path d="M 209.435 159.10925 
L 229.435 159.10925 
" style="fill:none;stroke:#1f77b4;stroke-linecap:square;stroke-width:1.5;"/>
    </g>
    <g id="line2d_22"/>
    <g id="text_22">
     <!-- 2019 -->
     <g transform="translate(237.435 162.60925)scale(0.1 -0.1)">
      <use xlink:href="#DejaVuSans-50"/>
      <use x="63.623047" xlink:href="#DejaVuSans-48"/>
      <use x="127.246094" xlink:href="#DejaVuSans-49"/>
      <use x="190.869141" xlink:href="#DejaVuSans-57"/>
     </g>
    </g>
    <g id="line2d_23">
     <path d="M 209.435 173.787375 
L 229.435 173.787375 
" style="fill:none;stroke:#ff7f0e;stroke-linecap:square;stroke-width:1.5;"/>
    </g>
    <g id="line2d_24"/>
    <g id="text_23">
     <!-- 2020 -->
     <g transform="translate(237.435 177.287375)scale(0.1 -0.1)">
      <use xlink:href="#DejaVuSans-50"/>
      <use x="63.623047" xlink:href="#DejaVuSans-48"/>
      <use x="127.246094" xlink:href="#DejaVuSans-50"/>
      <use x="190.869141" xlink:href="#DejaVuSans-48"/>
     </g>
    </g>
    <g id="line2d_25">
     <path d="M 209.435 188.4655 
L 229.435 188.4655 
" style="fill:none;stroke:#2ca02c;stroke-linecap:square;stroke-width:1.5;"/>
    </g>
    <g id="line2d_26"/>
    <g id="text_24">
     <!-- 2021 -->
     <g transform="translate(237.435 191.9655)scale(0.1 -0.1)">
      <use xlink:href="#DejaVuSans-50"/>
      <use x="63.623047" xlink:href="#DejaVuSans-48"/>
      <use x="127.246094" xlink:href="#DejaVuSans-50"/>
      <use x="190.869141" xlink:href="#DejaVuSans-49"/>
     </g>
    </g>
   </g>
  </g>
 </g>
 <defs>
  <clipPath id="pd6f7d71dc6">
   <rect height="266.112" width="357.12" x="57.6" y="41.472"/>
  </clipPath>
 </defs>
</svg>
